<svg width="41" height="40" viewBox="0 0 41 40" fill="currentColor" xmlns="http://www.w3.org/2000/svg">
<g clip-path="url(#clip0_35_2094)">
<path d="M23.8052 18.6433L26.2752 14.2267L21.8919 16.6967L20.5352 11.8267L19.1785 16.6967L14.7602 14.2267L17.1952 18.6433L12.3252 20L17.1952 21.3567L14.7252 25.775L19.1419 23.305L20.4985 28.175L21.8552 23.305L26.2719 25.775L23.8019 21.3917L28.6719 20.035L23.8052 18.6433ZM21.8919 20.2783C21.8919 20.3133 21.8569 20.3483 21.8569 20.3817C21.8569 20.415 21.8219 20.485 21.8219 20.515C21.7869 20.55 21.7869 20.585 21.7519 20.6483C21.7169 20.6833 21.7169 20.7183 21.6819 20.7517C21.6435 20.8183 21.6002 20.875 21.5485 20.925L21.5135 20.96C21.4435 21.03 21.3802 21.0633 21.3035 21.1333C21.2685 21.1683 21.2335 21.1683 21.2002 21.2033C21.1669 21.2383 21.1185 21.2617 21.0685 21.2717C21.0352 21.2933 20.9935 21.3067 20.9502 21.3067C20.9435 21.3067 20.9385 21.3067 20.9319 21.3067C20.8969 21.3067 20.8285 21.3417 20.7985 21.3417C20.7285 21.3417 20.6652 21.3767 20.5885 21.3767H20.4552C20.4452 21.3783 20.4335 21.3783 20.4202 21.3783C20.3569 21.3783 20.2969 21.365 20.2435 21.3417L20.2469 21.3433C20.2119 21.3433 20.1435 21.3083 20.1135 21.3083C20.0835 21.3083 20.0102 21.2733 19.9802 21.2733C19.9452 21.2383 19.8769 21.2383 19.8469 21.2033C19.8169 21.1683 19.7769 21.1683 19.7435 21.1333C19.6635 21.085 19.5952 21.0267 19.5352 20.96L19.5002 20.925C19.4302 20.855 19.3969 20.7917 19.3269 20.715C19.2919 20.68 19.2919 20.645 19.2569 20.6117C19.2219 20.5783 19.2219 20.5083 19.1869 20.4783C19.1652 20.445 19.1519 20.405 19.1519 20.3617C19.1519 20.355 19.1519 20.35 19.1519 20.3433C19.1519 20.3083 19.1169 20.2733 19.1169 20.24C19.0952 20.1567 19.0819 20.06 19.0819 19.9617C19.0819 19.8633 19.0952 19.7667 19.1185 19.675L19.1169 19.6833C19.1169 19.6483 19.1519 19.6133 19.1519 19.58C19.1519 19.51 19.1869 19.4767 19.2219 19.4067C19.2219 19.3717 19.2569 19.3367 19.2569 19.3033C19.2919 19.2683 19.2919 19.2 19.3269 19.17C19.3685 19.1333 19.4035 19.0883 19.4302 19.04L19.4319 19.0367C19.5019 18.9667 19.5352 18.9033 19.6052 18.8633C19.6402 18.8283 19.6752 18.7933 19.7085 18.7933C19.7785 18.7583 19.8119 18.7233 19.8819 18.69C19.9169 18.69 19.9169 18.655 19.9519 18.655C20.0219 18.62 20.0852 18.62 20.1619 18.585H20.2319C20.3152 18.5633 20.4119 18.55 20.5102 18.55C20.6085 18.55 20.7052 18.5633 20.7969 18.5867L20.7885 18.585C20.8235 18.585 20.8585 18.62 20.8919 18.62C20.9619 18.62 20.9952 18.655 21.0652 18.69C21.1002 18.725 21.1352 18.725 21.1985 18.76C21.2335 18.795 21.2685 18.795 21.3019 18.83C21.4519 18.935 21.5802 19.0617 21.6819 19.2083L21.6852 19.2133C21.7202 19.2483 21.7202 19.2833 21.7552 19.3167C21.7902 19.35 21.8135 19.3983 21.8235 19.4483V19.45C21.8452 19.4833 21.8585 19.5233 21.8585 19.5667V19.585C21.8585 19.62 21.8935 19.655 21.8935 19.7183C21.9169 19.7883 21.9302 19.8683 21.9302 19.95C21.9302 19.9667 21.9302 19.9833 21.9285 19.9983C21.9302 20.015 21.9302 20.0333 21.9302 20.055C21.9302 20.135 21.9169 20.2133 21.8902 20.285L21.8919 20.28V20.2783Z" fill="#B7E0E2"/>
<path d="M19.8401 9.70487C19.8401 9.1832 19.8401 8.69487 19.8051 8.2782C19.9784 8.66154 20.1884 9.0782 20.3617 9.42654L21.0584 10.6782H21.8234V7.4082H21.1267V8.38154C21.1251 8.45654 21.1234 8.5432 21.1234 8.63154C21.1234 9.02154 21.1501 9.40654 21.2017 9.78154L21.1967 9.7382C21.0167 9.2882 20.8417 8.9232 20.6467 8.5682L20.6751 8.62487L19.9784 7.4082H19.1084V10.6782H19.8051V9.70487H19.8401Z" fill="#B7E0E2"/>
<path d="M10.6569 19.7217C10.5869 20.105 10.5236 20.4867 10.4836 20.87C10.4486 20.4867 10.3802 20.14 10.3102 19.7567L10.0252 18.3667H9.22523L8.95857 19.7234C8.88857 20.14 8.78523 20.5234 8.74857 20.8717C8.67857 20.5234 8.61523 20.1067 8.53857 19.7234L8.29023 18.3667H7.49023L8.25523 21.6367H9.05523L9.36857 20.21C9.4369 19.9334 9.49857 19.59 9.53857 19.2417L9.5419 19.2017C9.5769 19.585 9.64523 19.8984 9.67523 20.2117L9.95357 21.6384H10.7536L11.5886 18.3684H10.9219L10.6569 19.7217Z" fill="#B7E0E2"/>
<path d="M32.2562 20.2436H33.4395V19.6536H32.2562V18.9569H33.5079V18.3652H31.4912V21.6352H33.5779V21.0452H32.2562V20.2436Z" fill="#B7E0E2"/>
<path d="M20.7767 30.8515C20.3601 30.6782 20.1501 30.6082 20.1501 30.3999C20.1501 30.2265 20.2834 30.0865 20.6367 30.0865C20.8884 30.0965 21.1267 30.1449 21.3501 30.2249L21.3334 30.2199L21.5067 29.6299C21.2601 29.5299 20.9751 29.4665 20.6767 29.4565H20.6717C19.9067 29.4565 19.4201 29.8732 19.4201 30.4299C19.4201 30.9165 19.7684 31.1949 20.3234 31.4032C20.7067 31.5365 20.8801 31.6465 20.8801 31.8549C20.8801 32.0632 20.7067 32.2032 20.3584 32.2032C20.0517 32.1965 19.7634 32.1199 19.5084 31.9899L19.5201 31.9949L19.3867 32.6215C19.6534 32.7532 19.9667 32.8315 20.2967 32.8315H20.3201H20.3184C21.2217 32.8315 21.6401 32.3799 21.6401 31.8215C21.6517 31.3749 21.3684 31.0615 20.7767 30.8515Z" fill="#B7E0E2"/>
<path d="M20.5 0C9.455 0 0.5 8.955 0.5 20C0.5 31.045 9.455 40 20.5 40C31.545 40 40.5 31.045 40.5 20C40.485 8.96 31.54 0.015 20.5017 0H20.5ZM37.265 21.8433C36.375 29.665 30.2567 35.82 22.5283 36.7567L22.4467 36.765L20.4983 33.39L18.55 36.7633C10.7667 35.8133 4.665 29.7 3.74 21.9933L3.73167 21.9133L7.00167 20L3.73167 18.1217C4.66333 10.335 10.7667 4.22 18.4667 3.27833L18.5483 3.27L20.4967 6.645L22.445 3.27167C30.2533 4.21667 36.3717 10.37 37.255 18.1133L37.2617 18.1917L34.0967 20.035L37.265 21.8433Z" fill="#B7E0E2"/>
</g>
<defs>
<clipPath id="clip0_35_2094">
<rect width="40" height="40" fill="white" transform="translate(0.5)"/>
</clipPath>
</defs>
</svg>
