<svg width="1em" height="1em" viewBox="0 0 55 55" fill="none" xmlns="http://www.w3.org/2000/svg">
<g filter="url(#filter0_f_82_3887)">
<path d="M39.5696 27.8366C39.5696 34.487 34.181 39.8783 27.5338 39.8783C20.8866 39.8783 15.498 34.487 15.498 27.8366C15.498 21.1862 20.8866 15.7949 27.5338 15.7949C34.181 15.7949 39.5696 21.1862 39.5696 27.8366Z" fill="#BAC7CB" fill-opacity="0.2"/>
</g>
<path d="M43.5 29.796C43.5 32.67 41.2423 35 38.4564 35H20.206C16.5027 35 13.5 31.9023 13.5 28.0795C13.5 24.2579 16.5027 21.1591 20.206 21.1591C20.5382 21.1591 20.8647 21.1854 21.1847 21.2333C22.6992 18.1297 25.8137 16 29.4116 16C33.7651 16 37.4122 19.1193 38.3703 23.31C38.466 23.7284 38.535 24.1571 38.5747 24.5937V24.5948C41.3047 24.6592 43.5 26.9628 43.5 29.796Z" fill="#BAC7CB"/>
<g filter="url(#filter1_b_82_3887)">
<path d="M43.5 29.796C43.5 32.67 41.2423 35 38.4564 35H20.206C16.5027 35 13.5 31.9023 13.5 28.0795C13.5 24.2579 16.5027 21.1591 20.206 21.1591C20.5382 21.1591 20.8647 21.1854 21.1847 21.2333C22.6992 18.1297 25.8137 16 29.4116 16C33.7651 16 37.4122 19.1193 38.3703 23.31C38.466 23.7284 38.535 24.1571 38.5747 24.5937V24.5948C41.3047 24.6592 43.5 26.9628 43.5 29.796Z" fill="url(#paint0_linear_82_3887)"/>
</g>
<g filter="url(#filter2_b_82_3887)">
<path fill-rule="evenodd" clip-rule="evenodd" d="M21.3063 21.4747L21.1542 21.4519C20.8435 21.4055 20.5272 21.38 20.206 21.38C16.6203 21.38 13.7137 24.3803 13.7137 28.0795C13.7137 31.7799 16.6203 34.7791 20.206 34.7791H38.4564C41.1247 34.7791 43.2863 32.5476 43.2863 29.796C43.2863 27.0836 41.1844 24.8773 38.5698 24.8157L38.361 24.8108V24.6042C38.3221 24.1814 38.255 23.7663 38.1624 23.3608C37.2266 19.2678 33.664 16.2209 29.4116 16.2209C25.8973 16.2209 22.855 18.3009 21.3755 21.3328L21.3063 21.4747ZM38.5747 24.5937V24.5948C41.3047 24.6592 43.5 26.9628 43.5 29.796C43.5 32.67 41.2423 35 38.4564 35H20.206C16.5027 35 13.5 31.9023 13.5 28.0795C13.5 24.2579 16.5027 21.1591 20.206 21.1591C20.5382 21.1591 20.8647 21.1854 21.1847 21.2333C22.6992 18.1297 25.8137 16 29.4116 16C33.7651 16 37.4122 19.1193 38.3703 23.31C38.466 23.7284 38.535 24.1571 38.5747 24.5937Z" fill="url(#paint1_linear_82_3887)"/>
</g>
<path d="M40.2873 42.0368C39.067 42.0368 38.0741 40.8917 38.0741 39.4844C38.0741 39.2015 38.273 38.9723 38.5182 38.9723C38.7633 38.9723 38.962 39.2015 38.962 39.4844C38.962 40.3271 39.5566 41.0128 40.2873 41.0128C41.0182 41.0128 41.6128 40.3271 41.6128 39.4844C41.6128 38.6415 41.0182 37.9561 40.2873 37.9561H21.1989C20.9536 37.9561 20.7549 37.7267 20.7549 37.444C20.7549 37.1613 20.9536 36.9321 21.1989 36.9321H40.2873C41.5078 36.9321 42.5007 38.0769 42.5007 39.4844C42.5007 40.8917 41.5078 42.0368 40.2873 42.0368Z" fill="#9DB7BF"/>
<path d="M20.0745 40.0734H15.969C15.722 40.0734 15.5215 39.8684 15.5215 39.6154C15.5215 39.3623 15.722 39.1572 15.969 39.1572H20.0745C20.3216 39.1572 20.5218 39.3623 20.5218 39.6154C20.5218 39.8684 20.3216 40.0734 20.0745 40.0734Z" fill="#9DB7BF"/>
<path d="M31.9131 44.0001C30.6918 44.0001 29.6986 42.9137 29.6986 41.5787C29.6986 41.3105 29.8974 41.0928 30.1427 41.0928C30.3879 41.0928 30.587 41.3105 30.587 41.5787C30.587 42.3781 31.1817 43.0286 31.9131 43.0286C32.6442 43.0286 33.2391 42.3781 33.2391 41.5787C33.2391 40.7792 32.6442 40.1287 31.9131 40.1287H21.78C21.5348 40.1287 21.3359 39.9112 21.3359 39.6428C21.3359 39.3746 21.5348 39.1572 21.78 39.1572H31.9131C33.1341 39.1572 34.1276 40.2436 34.1276 41.5787C34.1276 42.9137 33.1341 44.0001 31.9131 44.0001Z" fill="#9DB7BF"/>
<path d="M27.6346 42.4294H17.8277C17.5816 42.4294 17.3818 42.1951 17.3818 41.9057C17.3818 41.6167 17.5816 41.3823 17.8277 41.3823H27.6346C27.8808 41.3823 28.0803 41.6167 28.0803 41.9057C28.0803 42.1951 27.8808 42.4294 27.6346 42.4294Z" fill="#9DB7BF"/>
<path d="M23.6927 35.885H17.0029C16.7628 35.885 16.5684 35.6797 16.5684 35.4267C16.5684 35.1738 16.7628 34.9688 17.0029 34.9688H23.6927C23.9326 34.9688 24.1271 35.1738 24.1271 35.4267C24.1271 35.6797 23.9326 35.885 23.6927 35.885Z" fill="#9DB7BF"/>
<defs>
<filter id="filter0_f_82_3887" x="0.59989" y="0.896765" width="53.8676" height="53.8798" filterUnits="userSpaceOnUse" color-interpolation-filters="sRGB">
<feFlood flood-opacity="0" result="BackgroundImageFix"/>
<feBlend mode="normal" in="SourceGraphic" in2="BackgroundImageFix" result="shape"/>
<feGaussianBlur stdDeviation="7.44908" result="effect1_foregroundBlur_82_3887"/>
</filter>
<filter id="filter1_b_82_3887" x="-17.5378" y="-15.0378" width="92.0757" height="81.0757" filterUnits="userSpaceOnUse" color-interpolation-filters="sRGB">
<feFlood flood-opacity="0" result="BackgroundImageFix"/>
<feGaussianBlur in="BackgroundImageFix" stdDeviation="15.5189"/>
<feComposite in2="SourceAlpha" operator="in" result="effect1_backgroundBlur_82_3887"/>
<feBlend mode="normal" in="SourceGraphic" in2="effect1_backgroundBlur_82_3887" result="shape"/>
</filter>
<filter id="filter2_b_82_3887" x="-17.5378" y="-15.0378" width="92.0757" height="81.0757" filterUnits="userSpaceOnUse" color-interpolation-filters="sRGB">
<feFlood flood-opacity="0" result="BackgroundImageFix"/>
<feGaussianBlur in="BackgroundImageFix" stdDeviation="15.5189"/>
<feComposite in2="SourceAlpha" operator="in" result="effect1_backgroundBlur_82_3887"/>
<feBlend mode="normal" in="SourceGraphic" in2="effect1_backgroundBlur_82_3887" result="shape"/>
</filter>
<linearGradient id="paint0_linear_82_3887" x1="18.2513" y1="19.3291" x2="40.0063" y2="34.3144" gradientUnits="userSpaceOnUse">
<stop offset="0.416176" stop-color="white" stop-opacity="0.7"/>
<stop offset="1" stop-color="white" stop-opacity="0"/>
</linearGradient>
<linearGradient id="paint1_linear_82_3887" x1="11.2027" y1="21.0068" x2="22.1856" y2="28.6473" gradientUnits="userSpaceOnUse">
<stop stop-color="white"/>
<stop offset="1" stop-color="white" stop-opacity="0"/>
</linearGradient>
</defs>
</svg>
