<svg width="1em" height="1em" viewBox="0 0 35 34" fill="none" xmlns="http://www.w3.org/2000/svg">
<path d="M32.5 18.796C32.5 21.67 30.2423 24 27.4564 24H9.20605C5.50266 24 2.5 20.9023 2.5 17.0795C2.5 13.2579 5.50266 10.1591 9.20605 10.1591C9.53818 10.1591 9.86465 10.1854 10.1847 10.2333C11.6992 7.12971 14.8137 5 18.4116 5C22.7651 5 26.4122 8.11928 27.3703 12.31C27.4659 12.7284 27.535 13.1571 27.5747 13.5937V13.5948C30.3047 13.6592 32.5 15.9628 32.5 18.796Z" fill="#BAC7CB" fill-opacity="0.4"/>
<g filter="url(#filter0_b_81_2053)">
<path d="M32.5 18.796C32.5 21.67 30.2423 24 27.4564 24H9.20605C5.50266 24 2.5 20.9023 2.5 17.0795C2.5 13.2579 5.50266 10.1591 9.20605 10.1591C9.53818 10.1591 9.86465 10.1854 10.1847 10.2333C11.6992 7.12971 14.8137 5 18.4116 5C22.7651 5 26.4122 8.11928 27.3703 12.31C27.4659 12.7284 27.535 13.1571 27.5747 13.5937V13.5948C30.3047 13.6592 32.5 15.9628 32.5 18.796Z" fill="url(#paint0_linear_81_2053)"/>
</g>
<g filter="url(#filter1_b_81_2053)">
<path fill-rule="evenodd" clip-rule="evenodd" d="M10.2741 10.4107L10.1623 10.394C9.84908 10.3472 9.53014 10.3215 9.20605 10.3215C5.58913 10.3215 2.65707 13.3479 2.65707 17.0795C2.65707 20.8123 5.58911 23.8376 9.20605 23.8376H27.4564C30.1559 23.8376 32.3429 21.5801 32.3429 18.796C32.3429 16.0516 30.2163 13.8195 27.5711 13.7572L27.4176 13.7536V13.6014C27.3785 13.1749 27.3109 12.7562 27.2175 12.3474C26.2757 8.22843 22.6908 5.16239 18.4116 5.16239C14.8752 5.16239 11.8137 7.25554 10.325 10.3064L10.2741 10.4107ZM27.5747 13.5937V13.5948C30.3047 13.6592 32.5 15.9628 32.5 18.796C32.5 21.67 30.2423 24 27.4564 24H9.20605C5.50266 24 2.5 20.9023 2.5 17.0795C2.5 13.2579 5.50266 10.1591 9.20605 10.1591C9.53818 10.1591 9.86465 10.1854 10.1847 10.2333C11.6992 7.12971 14.8137 5 18.4116 5C22.7651 5 26.4122 8.11928 27.3703 12.31C27.4659 12.7284 27.535 13.1571 27.5747 13.5937Z" fill="url(#paint1_linear_81_2053)"/>
</g>
<path d="M22.9994 10L15.1982 17.8337H17.1379L13.6828 22.8257H15.717L12.5 28.6769L20.2114 21.9831H18.0824L21.4887 17.2086H19.0539L22.9994 10Z" fill="url(#paint2_radial_81_2053)"/>
<defs>
<filter id="filter0_b_81_2053" x="-28.5378" y="-26.0378" width="92.0757" height="81.0757" filterUnits="userSpaceOnUse" color-interpolation-filters="sRGB">
<feFlood flood-opacity="0" result="BackgroundImageFix"/>
<feGaussianBlur in="BackgroundImageFix" stdDeviation="15.5189"/>
<feComposite in2="SourceAlpha" operator="in" result="effect1_backgroundBlur_81_2053"/>
<feBlend mode="normal" in="SourceGraphic" in2="effect1_backgroundBlur_81_2053" result="shape"/>
</filter>
<filter id="filter1_b_81_2053" x="-28.5378" y="-26.0378" width="92.0757" height="81.0757" filterUnits="userSpaceOnUse" color-interpolation-filters="sRGB">
<feFlood flood-opacity="0" result="BackgroundImageFix"/>
<feGaussianBlur in="BackgroundImageFix" stdDeviation="15.5189"/>
<feComposite in2="SourceAlpha" operator="in" result="effect1_backgroundBlur_81_2053"/>
<feBlend mode="normal" in="SourceGraphic" in2="effect1_backgroundBlur_81_2053" result="shape"/>
</filter>
<linearGradient id="paint0_linear_81_2053" x1="7.25131" y1="8.32906" x2="29.0063" y2="23.3144" gradientUnits="userSpaceOnUse">
<stop offset="0.416176" stop-color="white" stop-opacity="0.7"/>
<stop offset="1" stop-color="white" stop-opacity="0"/>
</linearGradient>
<linearGradient id="paint1_linear_81_2053" x1="0.202703" y1="10.0068" x2="11.1856" y2="17.6473" gradientUnits="userSpaceOnUse">
<stop stop-color="white"/>
<stop offset="1" stop-color="white" stop-opacity="0"/>
</linearGradient>
<radialGradient id="paint2_radial_81_2053" cx="0" cy="0" r="1" gradientUnits="userSpaceOnUse" gradientTransform="translate(17.7497 19.3385) rotate(90) scale(12.9981 7.30699)">
<stop stop-color="#FFD88B"/>
<stop offset="1" stop-color="#FFA900"/>
</radialGradient>
</defs>
</svg>
