<svg width="1em" height="1em" viewBox="0 0 47 45" fill="none" xmlns="http://www.w3.org/2000/svg">
<path d="M42.4824 21.4326C42.4824 24.1555 40.3753 26.3628 37.775 26.3628H20.7414C17.2849 26.3628 14.4824 23.4281 14.4824 19.8066C14.4824 16.1861 17.2849 13.2504 20.7414 13.2504C21.0514 13.2504 21.3561 13.2753 21.6549 13.3206C23.0683 10.3804 25.9752 8.36279 29.3332 8.36279C33.3965 8.36279 36.8005 11.3179 37.6947 15.2881C37.784 15.6844 37.8484 16.0905 37.8854 16.5042V16.5053C40.4334 16.5662 42.4824 18.7486 42.4824 21.4326Z" fill="#BAC7CB" fill-opacity="0.4"/>
<g filter="url(#filter0_b_82_3798)">
<path d="M42.502 21.0699C42.502 23.7927 40.3948 26 37.7946 26H20.7609C17.3044 26 14.502 23.0653 14.502 19.4438C14.502 15.8233 17.3044 12.8876 20.7609 12.8876C21.0709 12.8876 21.3756 12.9125 21.6744 12.9578C23.0878 10.0176 25.9948 8 29.3528 8C33.416 8 36.82 10.9551 37.7143 14.9253C37.8035 15.3217 37.8679 15.7277 37.905 16.1414V16.1425C40.453 16.2034 42.502 18.3858 42.502 21.0699Z" fill="url(#paint0_linear_82_3798)"/>
</g>
<g filter="url(#filter1_b_82_3798)">
<path fill-rule="evenodd" clip-rule="evenodd" d="M21.7382 13.4887L21.6339 13.4729C21.3416 13.4285 21.0439 13.4042 20.7414 13.4042C17.3656 13.4042 14.629 16.2713 14.629 19.8066C14.629 23.3429 17.3656 26.2089 20.7414 26.2089H37.775C40.2946 26.2089 42.3358 24.0702 42.3358 21.4326C42.3358 18.8327 40.351 16.7181 37.8821 16.6591L37.7388 16.6557V16.5115C37.7024 16.1075 37.6393 15.7108 37.5521 15.3234C36.6731 11.4213 33.3272 8.51664 29.3332 8.51664C26.0326 8.51664 23.1752 10.4996 21.7857 13.3899L21.7382 13.4887ZM37.8854 16.5042V16.5053C40.4334 16.5662 42.4824 18.7486 42.4824 21.4326C42.4824 24.1555 40.3753 26.3628 37.775 26.3628H20.7414C17.2849 26.3628 14.4824 23.4281 14.4824 19.8066C14.4824 16.1861 17.2849 13.2504 20.7414 13.2504C21.0514 13.2504 21.3561 13.2753 21.6549 13.3206C23.0683 10.3804 25.9752 8.36279 29.3332 8.36279C33.3965 8.36279 36.8005 11.3179 37.6947 15.2881C37.784 15.6844 37.8484 16.0905 37.8854 16.5042Z" fill="url(#paint1_linear_82_3798)"/>
</g>
<g filter="url(#filter2_f_82_3798)">
<path d="M31.9409 22.5072C31.9409 26.181 28.2382 29.1593 23.6707 29.1593C19.1031 29.1593 15.4004 26.181 15.4004 22.5072C15.4004 18.8333 19.1031 15.855 23.6707 15.855C28.2382 15.855 31.9409 18.8333 31.9409 22.5072Z" fill="#BAC7CB" fill-opacity="0.2"/>
</g>
<path d="M40.2355 20.9508C40.2355 23.5159 38.4995 25.5955 36.3572 25.5955H22.3236C19.4759 25.5955 17.167 22.8307 17.167 19.4189C17.167 16.008 19.4759 13.2423 22.3236 13.2423C22.579 13.2423 22.83 13.2657 23.0762 13.3085C24.2407 10.5385 26.6356 8.6377 29.4022 8.6377C32.7499 8.6377 35.5543 11.4217 36.2911 15.162C36.3646 15.5354 36.4177 15.918 36.4482 16.3077V16.3087C38.5474 16.3661 40.2355 18.4222 40.2355 20.9508Z" fill="#BAC7CB"/>
<g filter="url(#filter3_b_82_3798)">
<path d="M40.2355 20.9508C40.2355 23.5159 38.4995 25.5955 36.3572 25.5955H22.3236C19.4759 25.5955 17.167 22.8307 17.167 19.4189C17.167 16.008 19.4759 13.2423 22.3236 13.2423C22.579 13.2423 22.83 13.2657 23.0762 13.3085C24.2407 10.5385 26.6356 8.6377 29.4022 8.6377C32.7499 8.6377 35.5543 11.4217 36.2911 15.162C36.3646 15.5354 36.4177 15.918 36.4482 16.3077V16.3087C38.5474 16.3661 40.2355 18.4222 40.2355 20.9508Z" fill="url(#paint2_linear_82_3798)"/>
</g>
<g filter="url(#filter4_b_82_3798)">
<path fill-rule="evenodd" clip-rule="evenodd" d="M23.1696 13.5239L23.0527 13.5036C22.8138 13.4622 22.5706 13.4394 22.3236 13.4394C19.5663 13.4394 17.3313 16.1173 17.3313 19.4189C17.3313 22.7214 19.5663 25.3983 22.3236 25.3983H36.3572C38.409 25.3983 40.0712 23.4067 40.0712 20.9508C40.0712 18.53 38.455 16.5608 36.4444 16.5058L36.2839 16.5015V16.317C36.254 15.9397 36.2024 15.5692 36.1312 15.2073C35.4116 11.5542 32.6721 8.83488 29.4022 8.83488C26.6999 8.83488 24.3605 10.6913 23.2229 13.3973L23.1696 13.5239ZM36.4482 16.3077V16.3087C38.5474 16.3661 40.2355 18.4222 40.2355 20.9508C40.2355 23.5159 38.4995 25.5955 36.3572 25.5955H22.3236C19.4759 25.5955 17.167 22.8307 17.167 19.4189C17.167 16.008 19.4759 13.2423 22.3236 13.2423C22.579 13.2423 22.83 13.2657 23.0762 13.3085C24.2407 10.5385 26.6356 8.6377 29.4022 8.6377C32.7499 8.6377 35.5543 11.4217 36.2911 15.162C36.3646 15.5354 36.4177 15.918 36.4482 16.3077Z" fill="url(#paint3_linear_82_3798)"/>
</g>
<path d="M31.7833 22.526C31.951 22.4084 31.9793 22.1928 31.8466 22.0443C31.7139 21.8959 31.4704 21.8708 31.3028 21.9883L31.7833 22.526ZM30.2597 22.7198C30.0921 22.8373 30.0638 23.0529 30.1965 23.2014C30.3292 23.3498 30.5727 23.3749 30.7403 23.2574L30.2597 22.7198ZM30.2597 23.2574C30.4273 23.3749 30.6708 23.3498 30.8035 23.2014C30.9362 23.0529 30.9079 22.8373 30.7403 22.7198L30.2597 23.2574ZM29.6972 21.9883C29.5296 21.8708 29.2861 21.8959 29.1534 22.0443C29.0207 22.1928 29.049 22.4084 29.2167 22.526L29.6972 21.9883ZM30.1129 22.9886C30.1129 23.1779 30.2862 23.3314 30.5 23.3314C30.7138 23.3314 30.8871 23.1779 30.8871 22.9886H30.1129ZM30.8871 21.3429C30.8871 21.1535 30.7138 21 30.5 21C30.2862 21 30.1129 21.1535 30.1129 21.3429H30.8871ZM30.8871 22.9886C30.8871 22.7992 30.7138 22.6457 30.5 22.6457C30.2862 22.6457 30.1129 22.7992 30.1129 22.9886H30.8871ZM30.1129 27.0114C30.1129 27.2008 30.2862 27.3543 30.5 27.3543C30.7138 27.3543 30.8871 27.2008 30.8871 27.0114H30.1129ZM29.2167 27.4741C29.049 27.5916 29.0207 27.8072 29.1534 27.9557C29.2861 28.1041 29.5296 28.1292 29.6972 28.0117L29.2167 27.4741ZM30.7403 27.2802C30.9079 27.1627 30.9362 26.9471 30.8035 26.7986C30.6708 26.6501 30.4273 26.6251 30.2597 26.7426L30.7403 27.2802ZM30.7403 26.7426C30.5727 26.6251 30.3292 26.6501 30.1965 26.7986C30.0638 26.9471 30.0921 27.1627 30.2597 27.2802L30.7403 26.7426ZM31.3028 28.0117C31.4704 28.1292 31.7139 28.1041 31.8466 27.9557C31.9793 27.8072 31.951 27.5916 31.7833 27.4741L31.3028 28.0117ZM30.8871 27.0114C30.8871 26.8221 30.7138 26.6686 30.5 26.6686C30.2862 26.6686 30.1129 26.8221 30.1129 27.0114H30.8871ZM30.1129 28.6571C30.1129 28.8465 30.2862 29 30.5 29C30.7138 29 30.8871 28.8465 30.8871 28.6571H30.1129ZM27.4087 25.2599C27.2093 25.1916 26.9852 25.2794 26.9081 25.456C26.8309 25.6326 26.9301 25.8311 27.1295 25.8994L27.4087 25.2599ZM28.3733 26.3255C28.5727 26.3938 28.7969 26.306 28.874 26.1294C28.9511 25.9528 28.8519 25.7542 28.6526 25.6859L28.3733 26.3255ZM28.8955 26.0579C28.9281 25.8708 28.7832 25.6957 28.5719 25.6668C28.3606 25.638 28.1629 25.7664 28.1304 25.9535L28.8955 26.0579ZM27.9291 27.111C27.8965 27.2981 28.0414 27.4732 28.2527 27.5021C28.464 27.5309 28.6617 27.4026 28.6942 27.2154L27.9291 27.111ZM28.705 26.3034C28.8906 26.2095 28.9551 26 28.849 25.8356C28.743 25.6712 28.5065 25.6141 28.3209 25.708L28.705 26.3034ZM26.6951 26.5309C26.5095 26.6248 26.445 26.8343 26.5511 26.9987C26.6571 27.1631 26.8936 27.2202 27.0792 27.1263L26.6951 26.5309ZM28.3209 25.708C28.1353 25.802 28.0708 26.0114 28.1768 26.1758C28.2829 26.3402 28.5194 26.3973 28.705 26.3034L28.3209 25.708ZM32.6791 24.292C32.8647 24.198 32.9292 23.9886 32.8232 23.8242C32.7171 23.6598 32.4806 23.6027 32.295 23.6966L32.6791 24.292ZM33.5913 24.7401C33.7907 24.8084 34.0148 24.7206 34.0919 24.544C34.169 24.3674 34.0699 24.1689 33.8705 24.1006L33.5913 24.7401ZM32.6267 23.6745C32.4273 23.6062 32.2031 23.694 32.126 23.8706C32.0489 24.0472 32.1481 24.2458 32.3475 24.3141L32.6267 23.6745ZM32.1045 23.9421C32.0719 24.1292 32.2168 24.3043 32.4281 24.3332C32.6394 24.362 32.8371 24.2336 32.8697 24.0465L32.1045 23.9421ZM33.071 22.889C33.1035 22.7018 32.9586 22.5268 32.7473 22.4979C32.536 22.4691 32.3383 22.5975 32.3057 22.7846L33.071 22.889ZM32.295 23.6966C32.1094 23.7905 32.0449 24 32.151 24.1644C32.257 24.3288 32.4935 24.3859 32.6791 24.292L32.295 23.6966ZM34.3049 23.4691C34.4905 23.3752 34.555 23.1657 34.4489 23.0013C34.3429 22.8369 34.1064 22.7798 33.9208 22.8737L34.3049 23.4691ZM27.1295 24.1006C26.9301 24.1689 26.8309 24.3674 26.9081 24.544C26.9852 24.7206 27.2093 24.8084 27.4087 24.7401L27.1295 24.1006ZM28.6526 24.3141C28.8519 24.2458 28.9511 24.0472 28.874 23.8706C28.7969 23.694 28.5727 23.6062 28.3733 23.6745L28.6526 24.3141ZM28.1304 24.0465C28.1629 24.2336 28.3606 24.362 28.5719 24.3332C28.7832 24.3043 28.9281 24.1292 28.8955 23.9421L28.1304 24.0465ZM28.6942 22.7846C28.6617 22.5975 28.464 22.4691 28.2527 22.4979C28.0414 22.5268 27.8965 22.7018 27.9291 22.889L28.6942 22.7846ZM28.3209 24.292C28.5065 24.3859 28.743 24.3288 28.849 24.1644C28.9551 24 28.8906 23.7905 28.705 23.6966L28.3209 24.292ZM27.0792 22.8737C26.8936 22.7798 26.6571 22.8369 26.5511 23.0013C26.445 23.1657 26.5095 23.3752 26.6951 23.4691L27.0792 22.8737ZM28.705 23.6966C28.5194 23.6027 28.2829 23.6598 28.1768 23.8242C28.0708 23.9886 28.1353 24.198 28.3209 24.292L28.705 23.6966ZM32.295 26.3034C32.4806 26.3973 32.7171 26.3402 32.8232 26.1758C32.9292 26.0114 32.8647 25.802 32.6791 25.708L32.295 26.3034ZM33.8705 25.8994C34.0699 25.8311 34.169 25.6326 34.0919 25.456C34.0148 25.2794 33.7907 25.1916 33.5913 25.2599L33.8705 25.8994ZM32.3475 25.6859C32.1481 25.7542 32.0489 25.9528 32.126 26.1294C32.2031 26.306 32.4273 26.3938 32.6267 26.3255L32.3475 25.6859ZM32.8697 25.9535C32.8371 25.7664 32.6394 25.638 32.4281 25.6668C32.2168 25.6957 32.0719 25.8708 32.1045 26.0579L32.8697 25.9535ZM32.3057 27.2154C32.3383 27.4026 32.536 27.5309 32.7473 27.5021C32.9586 27.4732 33.1035 27.2981 33.071 27.111L32.3057 27.2154ZM32.6791 25.708C32.4935 25.6141 32.257 25.6712 32.151 25.8356C32.0449 26 32.1094 26.2095 32.295 26.3034L32.6791 25.708ZM33.9208 27.1263C34.1064 27.2202 34.3429 27.1631 34.4489 26.9987C34.555 26.8343 34.4905 26.6248 34.3049 26.5309L33.9208 27.1263ZM31.3028 21.9883L30.2597 22.7198L30.7403 23.2574L31.7833 22.526L31.3028 21.9883ZM30.7403 22.7198L29.6972 21.9883L29.2167 22.526L30.2597 23.2574L30.7403 22.7198ZM30.8871 22.9886V21.3429H30.1129V22.9886H30.8871ZM30.1129 22.9886V27.0114H30.8871V22.9886H30.1129ZM29.6972 28.0117L30.7403 27.2802L30.2597 26.7426L29.2167 27.4741L29.6972 28.0117ZM30.2597 27.2802L31.3028 28.0117L31.7833 27.4741L30.7403 26.7426L30.2597 27.2802ZM30.1129 27.0114V28.6571H30.8871V27.0114H30.1129ZM27.1295 25.8994L28.3733 26.3255L28.6526 25.6859L27.4087 25.2599L27.1295 25.8994ZM28.1304 25.9535L27.9291 27.111L28.6942 27.2154L28.8955 26.0579L28.1304 25.9535ZM28.3209 25.708L26.6951 26.5309L27.0792 27.1263L28.705 26.3034L28.3209 25.708ZM28.705 26.3034L32.6791 24.292L32.295 23.6966L28.3209 25.708L28.705 26.3034ZM33.8705 24.1006L32.6267 23.6745L32.3475 24.3141L33.5913 24.7401L33.8705 24.1006ZM32.8697 24.0465L33.071 22.889L32.3057 22.7846L32.1045 23.9421L32.8697 24.0465ZM32.6791 24.292L34.3049 23.4691L33.9208 22.8737L32.295 23.6966L32.6791 24.292ZM27.4087 24.7401L28.6526 24.3141L28.3733 23.6745L27.1295 24.1006L27.4087 24.7401ZM28.8955 23.9421L28.6942 22.7846L27.9291 22.889L28.1304 24.0465L28.8955 23.9421ZM28.705 23.6966L27.0792 22.8737L26.6951 23.4691L28.3209 24.292L28.705 23.6966ZM28.3209 24.292L32.295 26.3034L32.6791 25.708L28.705 23.6966L28.3209 24.292ZM33.5913 25.2599L32.3475 25.6859L32.6267 26.3255L33.8705 25.8994L33.5913 25.2599ZM32.1045 26.0579L32.3057 27.2154L33.071 27.111L32.8697 25.9535L32.1045 26.0579ZM32.295 26.3034L33.9208 27.1263L34.3049 26.5309L32.6791 25.708L32.295 26.3034Z" fill="#9AA6E7"/>
<defs>
<filter id="filter0_b_82_3798" x="-16.5359" y="-23.0378" width="90.0757" height="80.0757" filterUnits="userSpaceOnUse" color-interpolation-filters="sRGB">
<feFlood flood-opacity="0" result="BackgroundImageFix"/>
<feGaussianBlur in="BackgroundImageFix" stdDeviation="15.5189"/>
<feComposite in2="SourceAlpha" operator="in" result="effect1_backgroundBlur_82_3798"/>
<feBlend mode="normal" in="SourceGraphic" in2="effect1_backgroundBlur_82_3798" result="shape"/>
</filter>
<filter id="filter1_b_82_3798" x="-16.5554" y="-22.675" width="90.0757" height="80.0757" filterUnits="userSpaceOnUse" color-interpolation-filters="sRGB">
<feFlood flood-opacity="0" result="BackgroundImageFix"/>
<feGaussianBlur in="BackgroundImageFix" stdDeviation="15.5189"/>
<feComposite in2="SourceAlpha" operator="in" result="effect1_backgroundBlur_82_3798"/>
<feBlend mode="normal" in="SourceGraphic" in2="effect1_backgroundBlur_82_3798" result="shape"/>
</filter>
<filter id="filter2_f_82_3798" x="0.502234" y="0.956823" width="46.3373" height="43.1005" filterUnits="userSpaceOnUse" color-interpolation-filters="sRGB">
<feFlood flood-opacity="0" result="BackgroundImageFix"/>
<feBlend mode="normal" in="SourceGraphic" in2="BackgroundImageFix" result="shape"/>
<feGaussianBlur stdDeviation="7.44908" result="effect1_foregroundBlur_82_3798"/>
</filter>
<filter id="filter3_b_82_3798" x="-13.8708" y="-22.4001" width="85.144" height="79.0337" filterUnits="userSpaceOnUse" color-interpolation-filters="sRGB">
<feFlood flood-opacity="0" result="BackgroundImageFix"/>
<feGaussianBlur in="BackgroundImageFix" stdDeviation="15.5189"/>
<feComposite in2="SourceAlpha" operator="in" result="effect1_backgroundBlur_82_3798"/>
<feBlend mode="normal" in="SourceGraphic" in2="effect1_backgroundBlur_82_3798" result="shape"/>
</filter>
<filter id="filter4_b_82_3798" x="-13.8708" y="-22.4001" width="85.144" height="79.0337" filterUnits="userSpaceOnUse" color-interpolation-filters="sRGB">
<feFlood flood-opacity="0" result="BackgroundImageFix"/>
<feGaussianBlur in="BackgroundImageFix" stdDeviation="15.5189"/>
<feComposite in2="SourceAlpha" operator="in" result="effect1_backgroundBlur_82_3798"/>
<feBlend mode="normal" in="SourceGraphic" in2="effect1_backgroundBlur_82_3798" result="shape"/>
</filter>
<linearGradient id="paint0_linear_82_3798" x1="18.9365" y1="11.1538" x2="39.4352" y2="25.0646" gradientUnits="userSpaceOnUse">
<stop offset="0.416176" stop-color="white" stop-opacity="0.7"/>
<stop offset="1" stop-color="white" stop-opacity="0.32"/>
</linearGradient>
<linearGradient id="paint1_linear_82_3798" x1="12.3383" y1="13.106" x2="22.6882" y2="20.1996" gradientUnits="userSpaceOnUse">
<stop stop-color="white"/>
<stop offset="1" stop-color="white" stop-opacity="0"/>
</linearGradient>
<linearGradient id="paint2_linear_82_3798" x1="20.8205" y1="11.6089" x2="39.0618" y2="22.4344" gradientUnits="userSpaceOnUse">
<stop offset="0.416176" stop-color="white" stop-opacity="0.7"/>
<stop offset="1" stop-color="white" stop-opacity="0"/>
</linearGradient>
<linearGradient id="paint3_linear_82_3798" x1="15.4005" y1="13.1063" x2="24.6207" y2="18.6326" gradientUnits="userSpaceOnUse">
<stop stop-color="white"/>
<stop offset="1" stop-color="white" stop-opacity="0"/>
</linearGradient>
</defs>
</svg>
