<svg width="1em" height="1em" viewBox="0 0 35 34" fill="none" xmlns="http://www.w3.org/2000/svg">
<path d="M32.4999 13.9036C32.4999 17.164 29.8681 19.8071 26.6215 19.8071C23.375 19.8071 20.7432 17.164 20.7432 13.9036C20.7432 10.6431 23.375 8 26.6215 8C29.8681 8 32.4999 10.6431 32.4999 13.9036Z" fill="url(#paint0_linear_81_2044)"/>
<path d="M32.5 21.796C32.5 24.67 30.2423 27 27.4564 27H9.20605C5.50266 27 2.5 23.9023 2.5 20.0795C2.5 16.2579 5.50266 13.1591 9.20605 13.1591C9.53818 13.1591 9.86465 13.1854 10.1847 13.2333C11.6992 10.1297 14.8137 8 18.4116 8C22.7651 8 26.4122 11.1193 27.3703 15.31C27.4659 15.7284 27.535 16.1571 27.5747 16.5937V16.5948C30.3047 16.6592 32.5 18.9628 32.5 21.796Z" fill="#BAC7CB" fill-opacity="0.4"/>
<g filter="url(#filter0_b_81_2044)">
<path d="M32.5 21.796C32.5 24.67 30.2423 27 27.4564 27H9.20605C5.50266 27 2.5 23.9023 2.5 20.0795C2.5 16.2579 5.50266 13.1591 9.20605 13.1591C9.53818 13.1591 9.86465 13.1854 10.1847 13.2333C11.6992 10.1297 14.8137 8 18.4116 8C22.7651 8 26.4122 11.1193 27.3703 15.31C27.4659 15.7284 27.535 16.1571 27.5747 16.5937V16.5948C30.3047 16.6592 32.5 18.9628 32.5 21.796Z" fill="url(#paint1_linear_81_2044)"/>
</g>
<g filter="url(#filter1_b_81_2044)">
<path fill-rule="evenodd" clip-rule="evenodd" d="M10.2741 13.2965L10.1623 13.2797C9.84908 13.2329 9.53014 13.2072 9.20605 13.2072C5.58913 13.2072 2.65707 16.2336 2.65707 19.9653C2.65707 23.698 5.58911 26.7233 9.20605 26.7233H27.4564C30.1559 26.7233 32.3429 24.4658 32.3429 21.6817C32.3429 18.9373 30.2163 16.7052 27.5711 16.6429L27.4176 16.6393V16.4871C27.3785 16.0607 27.3109 15.642 27.2175 15.2331C26.2757 11.1142 22.6908 8.04814 18.4116 8.04814C14.8752 8.04814 11.8137 10.1413 10.325 13.1922L10.2741 13.2965ZM27.5747 16.4795V16.4806C30.3047 16.5449 32.5 18.8485 32.5 21.6817C32.5 24.5558 30.2423 26.8857 27.4564 26.8857H9.20605C5.50266 26.8857 2.5 23.788 2.5 19.9653C2.5 16.1437 5.50266 13.0448 9.20605 13.0448C9.53818 13.0448 9.86465 13.0711 10.1847 13.119C11.6992 10.0154 14.8137 7.88574 18.4116 7.88574C22.7651 7.88574 26.4122 11.005 27.3703 15.1957C27.4659 15.6142 27.535 16.0428 27.5747 16.4795Z" fill="url(#paint2_linear_81_2044)"/>
</g>
<defs>
<filter id="filter0_b_81_2044" x="-28.5378" y="-23.0378" width="92.0757" height="81.0757" filterUnits="userSpaceOnUse" color-interpolation-filters="sRGB">
<feFlood flood-opacity="0" result="BackgroundImageFix"/>
<feGaussianBlur in="BackgroundImageFix" stdDeviation="15.5189"/>
<feComposite in2="SourceAlpha" operator="in" result="effect1_backgroundBlur_81_2044"/>
<feBlend mode="normal" in="SourceGraphic" in2="effect1_backgroundBlur_81_2044" result="shape"/>
</filter>
<filter id="filter1_b_81_2044" x="-28.5378" y="-23.1521" width="92.0757" height="81.0757" filterUnits="userSpaceOnUse" color-interpolation-filters="sRGB">
<feFlood flood-opacity="0" result="BackgroundImageFix"/>
<feGaussianBlur in="BackgroundImageFix" stdDeviation="15.5189"/>
<feComposite in2="SourceAlpha" operator="in" result="effect1_backgroundBlur_81_2044"/>
<feBlend mode="normal" in="SourceGraphic" in2="effect1_backgroundBlur_81_2044" result="shape"/>
</filter>
<linearGradient id="paint0_linear_81_2044" x1="28.9895" y1="8.54657" x2="24.0014" y2="19.7901" gradientUnits="userSpaceOnUse">
<stop stop-color="#FFD88B"/>
<stop offset="1" stop-color="#FFA900"/>
</linearGradient>
<linearGradient id="paint1_linear_81_2044" x1="7.25131" y1="11.3291" x2="29.0063" y2="26.3144" gradientUnits="userSpaceOnUse">
<stop offset="0.416176" stop-color="white" stop-opacity="0.7"/>
<stop offset="1" stop-color="white" stop-opacity="0"/>
</linearGradient>
<linearGradient id="paint2_linear_81_2044" x1="0.202703" y1="12.8925" x2="11.1856" y2="20.533" gradientUnits="userSpaceOnUse">
<stop stop-color="white"/>
<stop offset="1" stop-color="white" stop-opacity="0"/>
</linearGradient>
</defs>
</svg>
