<svg width="1em" height="1em" viewBox="0 0 25 24" fill="currentColor" xmlns="http://www.w3.org/2000/svg">
<path d="M16.69 2H8.31C4.67 2 2.5 4.17 2.5 7.81V16.18C2.5 19.83 4.67 22 8.31 22H16.68C20.32 22 22.49 19.83 22.49 16.19V7.81C22.5 4.17 20.33 2 16.69 2ZM17.75 12.33C17.75 12.74 17.41 13.08 17 13.08C16.59 13.08 16.25 12.74 16.25 12.33V9.31L8.53 17.03C8.38 17.18 8.19 17.25 8 17.25C7.81 17.25 7.62 17.18 7.47 17.03C7.18 16.74 7.18 16.26 7.47 15.97L15.19 8.25H12.17C11.76 8.25 11.42 7.91 11.42 7.5C11.42 7.09 11.76 6.75 12.17 6.75H17C17.41 6.75 17.75 7.09 17.75 7.5V12.33Z" fill="#E2E2E2" fill-opacity="0.54"/>
</svg>
