<svg width="1em" height="1em" viewBox="0 0 65 64" fill="none" xmlns="http://www.w3.org/2000/svg">
<g filter="url(#filter0_f_100_3624)">
<path d="M17.5645 47.7391C16.6355 43.913 14.4677 42.3188 13.5 42H49.5C47.9516 43.7536 46.0161 46.2087 46.0161 47.7391C46.0161 49.2696 46.4032 51.8841 47.1774 53H16.4032C17.1774 52.8406 18.4935 51.5652 17.5645 47.7391Z" fill="url(#paint0_linear_100_3624)"/>
</g>
<g filter="url(#filter1_d_100_3624)">
<path fill-rule="evenodd" clip-rule="evenodd" d="M49.5 25.5121C49.5 25.5081 49.5 25.504 49.5 25.5C49.5 18.5964 43.9036 13 37 13C31.6094 13 27.0158 16.4122 25.2613 21.1945C24.6946 21.0672 24.1051 21 23.5 21C19.0817 21 15.5 24.5817 15.5 29C15.5 29.0236 15.5001 29.0473 15.5003 29.0708C12.1079 29.5559 9.5 32.4734 9.5 36C9.5 39.866 12.634 43 16.5 43H46.5C51.4706 43 55.5 38.9706 55.5 34C55.5 30.0813 52.9956 26.7476 49.5 25.5121Z" fill="#64748B"/>
</g>
<g filter="url(#filter2_ii_100_3624)">
<path fill-rule="evenodd" clip-rule="evenodd" d="M55.5 34C55.5 38.9706 51.4706 43 46.5 43H16.5C12.634 43 9.5 39.866 9.5 36C9.5 32.134 12.634 29 16.5 29C19.2924 29 21.7029 30.6351 22.8264 33H37.5549C38.0524 28.5 41.8674 25 46.5 25C51.4706 25 55.5 29.0294 55.5 34Z" fill="#F1F5F9"/>
</g>
<g filter="url(#filter3_f_100_3624)">
<circle cx="16.5" cy="36" r="5" fill="url(#paint1_linear_100_3624)" style="mix-blend-mode:soft-light"/>
</g>
<g filter="url(#filter4_i_100_3624)">
<circle cx="23.5" cy="29" r="8" fill="#F1F5F9"/>
</g>
<g filter="url(#filter5_f_100_3624)">
<ellipse cx="23.5" cy="28" rx="6" ry="5" fill="url(#paint2_linear_100_3624)" style="mix-blend-mode:soft-light"/>
</g>
<g filter="url(#filter6_f_100_3624)">
<circle cx="47.5" cy="33" r="5" fill="url(#paint3_linear_100_3624)" style="mix-blend-mode:soft-light"/>
</g>
<g filter="url(#filter7_i_100_3624)">
<circle cx="37" cy="25.5" r="12.5" fill="#F1F5F9"/>
</g>
<g filter="url(#filter8_f_100_3624)">
<ellipse cx="36.5" cy="20" rx="7" ry="5" fill="url(#paint4_linear_100_3624)" style="mix-blend-mode:soft-light"/>
</g>
<g filter="url(#filter9_i_100_3624)">
<ellipse cx="32.5" cy="33.5" rx="9" ry="6.5" fill="url(#paint5_linear_100_3624)"/>
</g>
<g filter="url(#filter10_f_100_3624)">
<ellipse cx="32.5" cy="33.5" rx="7" ry="4.5" fill="url(#paint6_linear_100_3624)" style="mix-blend-mode:soft-light"/>
</g>
<path fill-rule="evenodd" clip-rule="evenodd" d="M49.5 25.5121C49.5 25.5081 49.5 25.504 49.5 25.5C49.5 18.5964 43.9036 13 37 13C31.6094 13 27.0158 16.4122 25.2613 21.1945C24.6946 21.0672 24.1051 21 23.5 21C19.0817 21 15.5 24.5817 15.5 29C15.5 29.0236 15.5001 29.0473 15.5003 29.0708C12.1079 29.5559 9.5 32.4734 9.5 36C9.5 39.866 12.634 43 16.5 43H46.5C51.4706 43 55.5 38.9706 55.5 34C55.5 30.0813 52.9956 26.7476 49.5 25.5121Z" fill="#93C5FD" style="mix-blend-mode:color"/>
<path fill-rule="evenodd" clip-rule="evenodd" d="M49.5 25.5121C49.5 25.5081 49.5 25.504 49.5 25.5C49.5 18.5964 43.9036 13 37 13C31.6094 13 27.0158 16.4122 25.2613 21.1945C24.6946 21.0672 24.1051 21 23.5 21C19.0817 21 15.5 24.5817 15.5 29C15.5 29.0236 15.5001 29.0473 15.5003 29.0708C12.1079 29.5559 9.5 32.4734 9.5 36C9.5 39.866 12.634 43 16.5 43H46.5C51.4706 43 55.5 38.9706 55.5 34C55.5 30.0813 52.9956 26.7476 49.5 25.5121Z" fill="#93C5FD" fill-opacity="0.2" style="mix-blend-mode:multiply"/>
<g filter="url(#filter11_ii_100_3624)">
<path d="M20.2588 52.9402L23.8735 47.0253C23.9913 46.8325 24.2884 46.9524 24.2393 47.1729L22.7356 53.9398C22.5979 54.5593 22.0485 55 21.414 55C20.3567 55 19.7075 53.8423 20.2588 52.9402Z" fill="#3B82F6"/>
</g>
<path d="M22.3204 54.0911C22.1045 54.5995 21.5174 54.8365 21.0091 54.6206C20.5007 54.4046 20.2637 53.8175 20.4796 53.3092C20.6956 52.8009 22.9917 48.2843 23.5 48.5002C24.0083 48.7162 22.5364 53.5828 22.3204 54.0911Z" fill="url(#paint7_radial_100_3624)"/>
<g filter="url(#filter12_ii_100_3624)">
<path d="M26.7588 52.9402L30.3735 47.0253C30.4913 46.8325 30.7884 46.9524 30.7393 47.1729L29.2356 53.9398C29.0979 54.5593 28.5485 55 27.914 55C26.8567 55 26.2075 53.8423 26.7588 52.9402Z" fill="#3B82F6"/>
</g>
<path d="M28.8204 54.0911C28.6045 54.5995 28.0174 54.8365 27.5091 54.6206C27.0007 54.4046 26.7637 53.8175 26.9796 53.3092C27.1956 52.8009 29.4917 48.2843 30 48.5002C30.5083 48.7162 29.0364 53.5828 28.8204 54.0911Z" fill="url(#paint8_radial_100_3624)"/>
<g filter="url(#filter13_ii_100_3624)">
<path d="M33.2588 52.9402L36.8735 47.0253C36.9913 46.8325 37.2884 46.9524 37.2393 47.1729L35.7356 53.9398C35.5979 54.5593 35.0485 55 34.414 55C33.3567 55 32.7075 53.8423 33.2588 52.9402Z" fill="#3B82F6"/>
</g>
<path d="M35.3204 54.0911C35.1045 54.5995 34.5174 54.8365 34.0091 54.6206C33.5007 54.4046 33.2637 53.8175 33.4796 53.3092C33.6956 52.8009 35.9917 48.2843 36.5 48.5002C37.0083 48.7162 35.5364 53.5828 35.3204 54.0911Z" fill="url(#paint9_radial_100_3624)"/>
<g filter="url(#filter14_ii_100_3624)">
<path d="M39.7588 52.9402L43.3735 47.0253C43.4913 46.8325 43.7884 46.9524 43.7393 47.1729L42.2356 53.9398C42.0979 54.5593 41.5485 55 40.914 55C39.8567 55 39.2075 53.8423 39.7588 52.9402Z" fill="#3B82F6"/>
</g>
<path d="M41.8204 54.0911C41.6045 54.5995 41.0174 54.8365 40.5091 54.6206C40.0007 54.4046 39.7637 53.8175 39.9796 53.3092C40.1956 52.8009 42.4917 48.2843 43 48.5002C43.5083 48.7162 42.0364 53.5828 41.8204 54.0911Z" fill="url(#paint10_radial_100_3624)"/>
<defs>
<filter id="filter0_f_100_3624" x="11.5" y="40" width="40" height="15" filterUnits="userSpaceOnUse" color-interpolation-filters="sRGB">
<feFlood flood-opacity="0" result="BackgroundImageFix"/>
<feBlend mode="normal" in="SourceGraphic" in2="BackgroundImageFix" result="shape"/>
<feGaussianBlur stdDeviation="1" result="effect1_foregroundBlur_100_3624"/>
</filter>
<filter id="filter1_d_100_3624" x="5.5" y="11" width="54" height="38" filterUnits="userSpaceOnUse" color-interpolation-filters="sRGB">
<feFlood flood-opacity="0" result="BackgroundImageFix"/>
<feColorMatrix in="SourceAlpha" type="matrix" values="0 0 0 0 0 0 0 0 0 0 0 0 0 0 0 0 0 0 127 0" result="hardAlpha"/>
<feOffset dy="2"/>
<feGaussianBlur stdDeviation="2"/>
<feComposite in2="hardAlpha" operator="out"/>
<feColorMatrix type="matrix" values="0 0 0 0 0.278431 0 0 0 0 0.333333 0 0 0 0 0.411765 0 0 0 0.4 0"/>
<feBlend mode="normal" in2="BackgroundImageFix" result="effect1_dropShadow_100_3624"/>
<feBlend mode="normal" in="SourceGraphic" in2="effect1_dropShadow_100_3624" result="shape"/>
</filter>
<filter id="filter2_ii_100_3624" x="9.5" y="23" width="46" height="22" filterUnits="userSpaceOnUse" color-interpolation-filters="sRGB">
<feFlood flood-opacity="0" result="BackgroundImageFix"/>
<feBlend mode="normal" in="SourceGraphic" in2="BackgroundImageFix" result="shape"/>
<feColorMatrix in="SourceAlpha" type="matrix" values="0 0 0 0 0 0 0 0 0 0 0 0 0 0 0 0 0 0 127 0" result="hardAlpha"/>
<feOffset dy="2"/>
<feGaussianBlur stdDeviation="1"/>
<feComposite in2="hardAlpha" operator="arithmetic" k2="-1" k3="1"/>
<feColorMatrix type="matrix" values="0 0 0 0 0.796078 0 0 0 0 0.835294 0 0 0 0 0.882353 0 0 0 1 0"/>
<feBlend mode="normal" in2="shape" result="effect1_innerShadow_100_3624"/>
<feColorMatrix in="SourceAlpha" type="matrix" values="0 0 0 0 0 0 0 0 0 0 0 0 0 0 0 0 0 0 127 0" result="hardAlpha"/>
<feOffset dy="-2"/>
<feGaussianBlur stdDeviation="1"/>
<feComposite in2="hardAlpha" operator="arithmetic" k2="-1" k3="1"/>
<feColorMatrix type="matrix" values="0 0 0 0 0.796078 0 0 0 0 0.835294 0 0 0 0 0.882353 0 0 0 0.6 0"/>
<feBlend mode="normal" in2="effect1_innerShadow_100_3624" result="effect2_innerShadow_100_3624"/>
</filter>
<filter id="filter3_f_100_3624" x="9.5" y="29" width="14" height="14" filterUnits="userSpaceOnUse" color-interpolation-filters="sRGB">
<feFlood flood-opacity="0" result="BackgroundImageFix"/>
<feBlend mode="normal" in="SourceGraphic" in2="BackgroundImageFix" result="shape"/>
<feGaussianBlur stdDeviation="1" result="effect1_foregroundBlur_100_3624"/>
</filter>
<filter id="filter4_i_100_3624" x="15.5" y="21" width="16" height="18" filterUnits="userSpaceOnUse" color-interpolation-filters="sRGB">
<feFlood flood-opacity="0" result="BackgroundImageFix"/>
<feBlend mode="normal" in="SourceGraphic" in2="BackgroundImageFix" result="shape"/>
<feColorMatrix in="SourceAlpha" type="matrix" values="0 0 0 0 0 0 0 0 0 0 0 0 0 0 0 0 0 0 127 0" result="hardAlpha"/>
<feOffset dy="2"/>
<feGaussianBlur stdDeviation="1"/>
<feComposite in2="hardAlpha" operator="arithmetic" k2="-1" k3="1"/>
<feColorMatrix type="matrix" values="0 0 0 0 0.796078 0 0 0 0 0.835294 0 0 0 0 0.882353 0 0 0 1 0"/>
<feBlend mode="normal" in2="shape" result="effect1_innerShadow_100_3624"/>
</filter>
<filter id="filter5_f_100_3624" x="15.5" y="21" width="16" height="14" filterUnits="userSpaceOnUse" color-interpolation-filters="sRGB">
<feFlood flood-opacity="0" result="BackgroundImageFix"/>
<feBlend mode="normal" in="SourceGraphic" in2="BackgroundImageFix" result="shape"/>
<feGaussianBlur stdDeviation="1" result="effect1_foregroundBlur_100_3624"/>
</filter>
<filter id="filter6_f_100_3624" x="40.5" y="26" width="14" height="14" filterUnits="userSpaceOnUse" color-interpolation-filters="sRGB">
<feFlood flood-opacity="0" result="BackgroundImageFix"/>
<feBlend mode="normal" in="SourceGraphic" in2="BackgroundImageFix" result="shape"/>
<feGaussianBlur stdDeviation="1" result="effect1_foregroundBlur_100_3624"/>
</filter>
<filter id="filter7_i_100_3624" x="24.5" y="13" width="25" height="27" filterUnits="userSpaceOnUse" color-interpolation-filters="sRGB">
<feFlood flood-opacity="0" result="BackgroundImageFix"/>
<feBlend mode="normal" in="SourceGraphic" in2="BackgroundImageFix" result="shape"/>
<feColorMatrix in="SourceAlpha" type="matrix" values="0 0 0 0 0 0 0 0 0 0 0 0 0 0 0 0 0 0 127 0" result="hardAlpha"/>
<feOffset dy="2"/>
<feGaussianBlur stdDeviation="1"/>
<feComposite in2="hardAlpha" operator="arithmetic" k2="-1" k3="1"/>
<feColorMatrix type="matrix" values="0 0 0 0 0.796078 0 0 0 0 0.835294 0 0 0 0 0.882353 0 0 0 1 0"/>
<feBlend mode="normal" in2="shape" result="effect1_innerShadow_100_3624"/>
</filter>
<filter id="filter8_f_100_3624" x="27.5" y="13" width="18" height="14" filterUnits="userSpaceOnUse" color-interpolation-filters="sRGB">
<feFlood flood-opacity="0" result="BackgroundImageFix"/>
<feBlend mode="normal" in="SourceGraphic" in2="BackgroundImageFix" result="shape"/>
<feGaussianBlur stdDeviation="1" result="effect1_foregroundBlur_100_3624"/>
</filter>
<filter id="filter9_i_100_3624" x="23.5" y="27" width="18" height="15" filterUnits="userSpaceOnUse" color-interpolation-filters="sRGB">
<feFlood flood-opacity="0" result="BackgroundImageFix"/>
<feBlend mode="normal" in="SourceGraphic" in2="BackgroundImageFix" result="shape"/>
<feColorMatrix in="SourceAlpha" type="matrix" values="0 0 0 0 0 0 0 0 0 0 0 0 0 0 0 0 0 0 127 0" result="hardAlpha"/>
<feOffset dy="2"/>
<feGaussianBlur stdDeviation="1"/>
<feComposite in2="hardAlpha" operator="arithmetic" k2="-1" k3="1"/>
<feColorMatrix type="matrix" values="0 0 0 0 0.796078 0 0 0 0 0.835294 0 0 0 0 0.882353 0 0 0 0.6 0"/>
<feBlend mode="normal" in2="shape" result="effect1_innerShadow_100_3624"/>
</filter>
<filter id="filter10_f_100_3624" x="23.5" y="27" width="18" height="13" filterUnits="userSpaceOnUse" color-interpolation-filters="sRGB">
<feFlood flood-opacity="0" result="BackgroundImageFix"/>
<feBlend mode="normal" in="SourceGraphic" in2="BackgroundImageFix" result="shape"/>
<feGaussianBlur stdDeviation="1" result="effect1_foregroundBlur_100_3624"/>
</filter>
<filter id="filter11_ii_100_3624" x="20.0576" y="46.4287" width="4.1875" height="8.57129" filterUnits="userSpaceOnUse" color-interpolation-filters="sRGB">
<feFlood flood-opacity="0" result="BackgroundImageFix"/>
<feBlend mode="normal" in="SourceGraphic" in2="BackgroundImageFix" result="shape"/>
<feColorMatrix in="SourceAlpha" type="matrix" values="0 0 0 0 0 0 0 0 0 0 0 0 0 0 0 0 0 0 127 0" result="hardAlpha"/>
<feOffset dy="-1"/>
<feComposite in2="hardAlpha" operator="arithmetic" k2="-1" k3="1"/>
<feColorMatrix type="matrix" values="0 0 0 0 0.231373 0 0 0 0 0.509804 0 0 0 0 0.964706 0 0 0 1 0"/>
<feBlend mode="normal" in2="shape" result="effect1_innerShadow_100_3624"/>
<feColorMatrix in="SourceAlpha" type="matrix" values="0 0 0 0 0 0 0 0 0 0 0 0 0 0 0 0 0 0 127 0" result="hardAlpha"/>
<feOffset dy="-0.5"/>
<feGaussianBlur stdDeviation="0.25"/>
<feComposite in2="hardAlpha" operator="arithmetic" k2="-1" k3="1"/>
<feColorMatrix type="matrix" values="0 0 0 0 0.113438 0 0 0 0 0.33625 0 0 0 0 0.825 0 0 0 1 0"/>
<feBlend mode="normal" in2="effect1_innerShadow_100_3624" result="effect2_innerShadow_100_3624"/>
</filter>
<filter id="filter12_ii_100_3624" x="26.5576" y="46.4287" width="4.1875" height="8.57129" filterUnits="userSpaceOnUse" color-interpolation-filters="sRGB">
<feFlood flood-opacity="0" result="BackgroundImageFix"/>
<feBlend mode="normal" in="SourceGraphic" in2="BackgroundImageFix" result="shape"/>
<feColorMatrix in="SourceAlpha" type="matrix" values="0 0 0 0 0 0 0 0 0 0 0 0 0 0 0 0 0 0 127 0" result="hardAlpha"/>
<feOffset dy="-1"/>
<feComposite in2="hardAlpha" operator="arithmetic" k2="-1" k3="1"/>
<feColorMatrix type="matrix" values="0 0 0 0 0.231373 0 0 0 0 0.509804 0 0 0 0 0.964706 0 0 0 1 0"/>
<feBlend mode="normal" in2="shape" result="effect1_innerShadow_100_3624"/>
<feColorMatrix in="SourceAlpha" type="matrix" values="0 0 0 0 0 0 0 0 0 0 0 0 0 0 0 0 0 0 127 0" result="hardAlpha"/>
<feOffset dy="-0.5"/>
<feGaussianBlur stdDeviation="0.25"/>
<feComposite in2="hardAlpha" operator="arithmetic" k2="-1" k3="1"/>
<feColorMatrix type="matrix" values="0 0 0 0 0.113438 0 0 0 0 0.33625 0 0 0 0 0.825 0 0 0 1 0"/>
<feBlend mode="normal" in2="effect1_innerShadow_100_3624" result="effect2_innerShadow_100_3624"/>
</filter>
<filter id="filter13_ii_100_3624" x="33.0576" y="46.4287" width="4.1875" height="8.57129" filterUnits="userSpaceOnUse" color-interpolation-filters="sRGB">
<feFlood flood-opacity="0" result="BackgroundImageFix"/>
<feBlend mode="normal" in="SourceGraphic" in2="BackgroundImageFix" result="shape"/>
<feColorMatrix in="SourceAlpha" type="matrix" values="0 0 0 0 0 0 0 0 0 0 0 0 0 0 0 0 0 0 127 0" result="hardAlpha"/>
<feOffset dy="-1"/>
<feComposite in2="hardAlpha" operator="arithmetic" k2="-1" k3="1"/>
<feColorMatrix type="matrix" values="0 0 0 0 0.231373 0 0 0 0 0.509804 0 0 0 0 0.964706 0 0 0 1 0"/>
<feBlend mode="normal" in2="shape" result="effect1_innerShadow_100_3624"/>
<feColorMatrix in="SourceAlpha" type="matrix" values="0 0 0 0 0 0 0 0 0 0 0 0 0 0 0 0 0 0 127 0" result="hardAlpha"/>
<feOffset dy="-0.5"/>
<feGaussianBlur stdDeviation="0.25"/>
<feComposite in2="hardAlpha" operator="arithmetic" k2="-1" k3="1"/>
<feColorMatrix type="matrix" values="0 0 0 0 0.113438 0 0 0 0 0.33625 0 0 0 0 0.825 0 0 0 1 0"/>
<feBlend mode="normal" in2="effect1_innerShadow_100_3624" result="effect2_innerShadow_100_3624"/>
</filter>
<filter id="filter14_ii_100_3624" x="39.5576" y="46.4287" width="4.1875" height="8.57129" filterUnits="userSpaceOnUse" color-interpolation-filters="sRGB">
<feFlood flood-opacity="0" result="BackgroundImageFix"/>
<feBlend mode="normal" in="SourceGraphic" in2="BackgroundImageFix" result="shape"/>
<feColorMatrix in="SourceAlpha" type="matrix" values="0 0 0 0 0 0 0 0 0 0 0 0 0 0 0 0 0 0 127 0" result="hardAlpha"/>
<feOffset dy="-1"/>
<feComposite in2="hardAlpha" operator="arithmetic" k2="-1" k3="1"/>
<feColorMatrix type="matrix" values="0 0 0 0 0.231373 0 0 0 0 0.509804 0 0 0 0 0.964706 0 0 0 1 0"/>
<feBlend mode="normal" in2="shape" result="effect1_innerShadow_100_3624"/>
<feColorMatrix in="SourceAlpha" type="matrix" values="0 0 0 0 0 0 0 0 0 0 0 0 0 0 0 0 0 0 127 0" result="hardAlpha"/>
<feOffset dy="-0.5"/>
<feGaussianBlur stdDeviation="0.25"/>
<feComposite in2="hardAlpha" operator="arithmetic" k2="-1" k3="1"/>
<feColorMatrix type="matrix" values="0 0 0 0 0.113438 0 0 0 0 0.33625 0 0 0 0 0.825 0 0 0 1 0"/>
<feBlend mode="normal" in2="effect1_innerShadow_100_3624" result="effect2_innerShadow_100_3624"/>
</filter>
<linearGradient id="paint0_linear_100_3624" x1="31.5" y1="42" x2="31.5" y2="53" gradientUnits="userSpaceOnUse">
<stop stop-color="#BAE6FD"/>
<stop offset="1" stop-color="#BAE6FD" stop-opacity="0"/>
</linearGradient>
<linearGradient id="paint1_linear_100_3624" x1="16.5" y1="31" x2="16.5" y2="41" gradientUnits="userSpaceOnUse">
<stop stop-color="white"/>
<stop offset="1" stop-color="#F3F3F3" stop-opacity="0.2"/>
</linearGradient>
<linearGradient id="paint2_linear_100_3624" x1="23.5" y1="23" x2="23.5" y2="33" gradientUnits="userSpaceOnUse">
<stop stop-color="white"/>
<stop offset="1" stop-color="#F3F3F3" stop-opacity="0.2"/>
</linearGradient>
<linearGradient id="paint3_linear_100_3624" x1="47.5" y1="28" x2="47.5" y2="38" gradientUnits="userSpaceOnUse">
<stop stop-color="white"/>
<stop offset="1" stop-color="#F3F3F3" stop-opacity="0.2"/>
</linearGradient>
<linearGradient id="paint4_linear_100_3624" x1="36.5" y1="15" x2="36.5" y2="25" gradientUnits="userSpaceOnUse">
<stop stop-color="white"/>
<stop offset="1" stop-color="#F3F3F3" stop-opacity="0.2"/>
</linearGradient>
<linearGradient id="paint5_linear_100_3624" x1="32.5" y1="27" x2="32.5" y2="40" gradientUnits="userSpaceOnUse">
<stop stop-color="#F1F5F9"/>
<stop offset="0.650321" stop-color="#F1F5F9" stop-opacity="0"/>
</linearGradient>
<linearGradient id="paint6_linear_100_3624" x1="32.5" y1="29" x2="32.5" y2="38" gradientUnits="userSpaceOnUse">
<stop stop-color="white"/>
<stop offset="1" stop-color="#F3F3F3" stop-opacity="0.2"/>
</linearGradient>
<radialGradient id="paint7_radial_100_3624" cx="0" cy="0" r="1" gradientUnits="userSpaceOnUse" gradientTransform="translate(21 54.5002) rotate(-68.1986) scale(5.38516)">
<stop stop-color="#74D5FF"/>
<stop offset="0.37551" stop-color="#74D5FF" stop-opacity="0"/>
</radialGradient>
<radialGradient id="paint8_radial_100_3624" cx="0" cy="0" r="1" gradientUnits="userSpaceOnUse" gradientTransform="translate(27.5 54.5002) rotate(-68.1986) scale(5.38516)">
<stop stop-color="#74D5FF"/>
<stop offset="0.37551" stop-color="#74D5FF" stop-opacity="0"/>
</radialGradient>
<radialGradient id="paint9_radial_100_3624" cx="0" cy="0" r="1" gradientUnits="userSpaceOnUse" gradientTransform="translate(34 54.5002) rotate(-68.1986) scale(5.38516)">
<stop stop-color="#74D5FF"/>
<stop offset="0.37551" stop-color="#74D5FF" stop-opacity="0"/>
</radialGradient>
<radialGradient id="paint10_radial_100_3624" cx="0" cy="0" r="1" gradientUnits="userSpaceOnUse" gradientTransform="translate(40.5 54.5002) rotate(-68.1986) scale(5.38516)">
<stop stop-color="#74D5FF"/>
<stop offset="0.37551" stop-color="#74D5FF" stop-opacity="0"/>
</radialGradient>
</defs>
</svg>
