<svg width="1em" height="1em" viewBox="0 0 71 66" fill="none" xmlns="http://www.w3.org/2000/svg">
<g filter="url(#filter0_d_100_3036)">
<path d="M35.026 11.2202C34.7598 11.117 34.4685 11.2751 34.3487 11.5341C33.7911 12.7398 32.4746 13.4688 31.1048 13.2273C29.735 12.9857 28.7473 11.8504 28.6357 10.5268C28.6117 10.2424 28.392 9.99418 28.1067 10.0001C27.8208 10.006 27.6138 10.2638 27.6023 10.5495C27.5484 11.8767 26.6112 13.0539 25.2533 13.355C23.8958 13.6559 22.5493 12.9856 21.9393 11.8062C21.8081 11.5524 21.5103 11.4069 21.2488 11.5223C20.9877 11.6375 20.8947 11.9545 20.993 12.2224C21.4505 13.4689 21.035 14.9146 19.896 15.7121C18.757 16.5097 17.2564 16.4056 16.2416 15.5494C16.0235 15.3654 15.6937 15.3443 15.4962 15.5503C15.2984 15.7565 15.3332 16.0861 15.5268 16.2963C16.4264 17.2728 16.5957 18.7674 15.8487 19.94C15.1013 21.1131 13.6745 21.5912 12.409 21.1878C12.1366 21.101 11.8236 21.2073 11.7202 21.4739C11.6171 21.74 11.7751 22.0313 12.0342 22.1511C13.2398 22.7087 13.9689 24.0252 13.7273 25.395C13.4858 26.7647 12.3505 27.7524 11.027 27.8641C10.7425 27.8881 10.4942 28.1079 10.5001 28.3934C10.506 28.6793 10.764 28.8864 11.0497 28.898C12.3768 28.9519 13.5539 29.8891 13.8549 31.247C14.1559 32.6044 13.4856 33.9509 12.3063 34.5609C12.0524 34.6922 11.907 34.99 12.0224 35.2514C12.1375 35.5125 12.4546 35.6055 12.7225 35.5072C13.969 35.0497 15.4147 35.4652 16.2122 36.6042C17.0097 37.7432 16.9057 39.2438 16.0495 40.2586C15.8655 40.4767 15.8444 40.8065 16.0504 41.004C16.2566 41.2018 16.5862 41.167 16.7964 40.9734C17.7729 40.0738 19.2675 39.9044 20.4402 40.6515C21.6132 41.3988 22.0913 42.8256 21.688 44.0911C21.6012 44.3635 21.7075 44.6766 21.9741 44.7799C22.2402 44.8831 22.5315 44.725 22.6513 44.466C23.2089 43.2603 24.5254 42.5313 25.8952 42.7728C27.265 43.0144 28.2527 44.1497 28.3643 45.4733C28.3883 45.7577 28.608 46.0059 28.8933 46C29.1792 45.994 29.3862 45.7362 29.3978 45.4506C29.4516 44.1234 30.3888 42.9462 31.7467 42.6451C33.1042 42.3442 34.4507 43.0145 35.0606 44.1938C35.1919 44.4477 35.4898 44.5931 35.7513 44.4778C36.0124 44.3626 36.1054 44.0454 36.0071 43.7775C35.5496 42.531 35.965 41.0853 37.104 40.2878C38.2431 39.4902 39.7437 39.5943 40.7585 40.4505C40.9766 40.6346 41.3064 40.6556 41.504 40.4496C41.7018 40.2434 41.667 39.9137 41.4734 39.7035C40.5737 38.727 40.4044 37.2324 41.1515 36.0597C41.8988 34.8867 43.3256 34.4086 44.5911 34.8119C44.8635 34.8987 45.1766 34.7924 45.2799 34.5258C45.3831 34.2597 45.225 33.9683 44.9659 33.8485C43.7603 33.2909 43.0313 31.9745 43.2728 30.6046C43.5144 29.2348 44.6498 28.247 45.9734 28.1355C46.2577 28.1116 46.5058 27.8919 46.4999 27.6067C46.494 27.3209 46.2363 27.114 45.9507 27.1025C44.6235 27.0487 43.4461 26.1115 43.145 24.7535C42.8441 23.396 43.5144 22.0495 44.6938 21.4395C44.9477 21.3082 45.0931 21.0104 44.9777 20.7489C44.8626 20.4878 44.5454 20.3948 44.2775 20.4931C43.031 20.9506 41.5853 20.5351 40.7878 19.3961C39.9902 18.2571 40.0943 16.7565 40.9505 15.7416C41.1346 15.5235 41.1557 15.1937 40.9497 14.9961C40.7434 14.7983 40.4138 14.8331 40.2036 15.0268C39.227 15.9263 37.7325 16.0957 36.5598 15.3486C35.3868 14.6013 34.9087 13.1745 35.312 11.909C35.3989 11.6366 35.2925 11.3235 35.026 11.2202Z" fill="url(#paint0_radial_100_3036)"/>
</g>
<g filter="url(#filter1_i_100_3036)">
<circle cx="28.5" cy="27.9995" r="12" fill="url(#paint1_linear_100_3036)"/>
</g>
<g filter="url(#filter2_ii_100_3036)">
<circle cx="28.5" cy="27.9995" r="12" fill="url(#paint2_linear_100_3036)"/>
</g>
<g filter="url(#filter3_f_100_3036)">
<ellipse cx="28.5" cy="22.9995" rx="7" ry="5" fill="url(#paint3_linear_100_3036)" style="mix-blend-mode:soft-light"/>
</g>
<g filter="url(#filter4_f_100_3036)">
<path d="M27.5645 53.7391C26.6355 49.913 24.4677 48.3188 23.5 48H59.5C57.9516 49.7536 56.0161 52.2087 56.0161 53.7391C56.0161 55.2696 56.4032 57.8841 57.1774 59H26.4032C27.1774 58.8406 28.4935 57.5652 27.5645 53.7391Z" fill="url(#paint4_linear_100_3036)"/>
</g>
<g filter="url(#filter5_d_100_3036)">
<path fill-rule="evenodd" clip-rule="evenodd" d="M59.5 31.5121C59.5 31.5081 59.5 31.504 59.5 31.5C59.5 24.5964 53.9036 19 47 19C41.6094 19 37.0158 22.4122 35.2613 27.1945C34.6946 27.0672 34.1051 27 33.5 27C29.0817 27 25.5 30.5817 25.5 35C25.5 35.0236 25.5001 35.0473 25.5003 35.0708C22.1079 35.5559 19.5 38.4734 19.5 42C19.5 45.866 22.634 49 26.5 49H56.5C61.4706 49 65.5 44.9706 65.5 40C65.5 36.0813 62.9956 32.7476 59.5 31.5121Z" fill="#64748B"/>
</g>
<g filter="url(#filter6_ii_100_3036)">
<path fill-rule="evenodd" clip-rule="evenodd" d="M65.5 40C65.5 44.9706 61.4706 49 56.5 49H26.5C22.634 49 19.5 45.866 19.5 42C19.5 38.134 22.634 35 26.5 35C29.2924 35 31.7029 36.6351 32.8264 39H47.5549C48.0524 34.5 51.8674 31 56.5 31C61.4706 31 65.5 35.0294 65.5 40Z" fill="#F1F5F9"/>
</g>
<g filter="url(#filter7_f_100_3036)">
<circle cx="26.5" cy="42" r="5" fill="url(#paint5_linear_100_3036)" style="mix-blend-mode:soft-light"/>
</g>
<g filter="url(#filter8_i_100_3036)">
<circle cx="33.5" cy="35" r="8" fill="#F1F5F9"/>
</g>
<g filter="url(#filter9_f_100_3036)">
<ellipse cx="33.5" cy="34" rx="6" ry="5" fill="url(#paint6_linear_100_3036)" style="mix-blend-mode:soft-light"/>
</g>
<g filter="url(#filter10_f_100_3036)">
<circle cx="57.5" cy="39" r="5" fill="url(#paint7_linear_100_3036)" style="mix-blend-mode:soft-light"/>
</g>
<g filter="url(#filter11_i_100_3036)">
<circle cx="47" cy="31.5" r="12.5" fill="#F1F5F9"/>
</g>
<g filter="url(#filter12_f_100_3036)">
<ellipse cx="46.5" cy="26" rx="7" ry="5" fill="url(#paint8_linear_100_3036)" style="mix-blend-mode:soft-light"/>
</g>
<g filter="url(#filter13_i_100_3036)">
<ellipse cx="42.5" cy="39.5" rx="9" ry="6.5" fill="url(#paint9_linear_100_3036)"/>
</g>
<g filter="url(#filter14_f_100_3036)">
<ellipse cx="42.5" cy="39.5" rx="7" ry="4.5" fill="url(#paint10_linear_100_3036)" style="mix-blend-mode:soft-light"/>
</g>
<path fill-rule="evenodd" clip-rule="evenodd" d="M59.5 31.5121C59.5 31.5081 59.5 31.504 59.5 31.5C59.5 24.5964 53.9036 19 47 19C41.6094 19 37.0158 22.4122 35.2613 27.1945C34.6946 27.0672 34.1051 27 33.5 27C29.0817 27 25.5 30.5817 25.5 35C25.5 35.0236 25.5001 35.0473 25.5003 35.0708C22.1079 35.5559 19.5 38.4734 19.5 42C19.5 45.866 22.634 49 26.5 49H56.5C61.4706 49 65.5 44.9706 65.5 40C65.5 36.0813 62.9956 32.7476 59.5 31.5121Z" fill="#93C5FD" style="mix-blend-mode:color"/>
<path fill-rule="evenodd" clip-rule="evenodd" d="M59.5 31.5121C59.5 31.5081 59.5 31.504 59.5 31.5C59.5 24.5964 53.9036 19 47 19C41.6094 19 37.0158 22.4122 35.2613 27.1945C34.6946 27.0672 34.1051 27 33.5 27C29.0817 27 25.5 30.5817 25.5 35C25.5 35.0236 25.5001 35.0473 25.5003 35.0708C22.1079 35.5559 19.5 38.4734 19.5 42C19.5 45.866 22.634 49 26.5 49H56.5C61.4706 49 65.5 44.9706 65.5 40C65.5 36.0813 62.9956 32.7476 59.5 31.5121Z" fill="#93C5FD" fill-opacity="0.2" style="mix-blend-mode:multiply"/>
<g filter="url(#filter15_dii_100_3036)">
<path fill-rule="evenodd" clip-rule="evenodd" d="M37.5313 53V54.768L39.0624 53.884C39.5407 53.6079 40.1522 53.7718 40.4284 54.2501C40.7045 54.7284 40.5407 55.3399 40.0624 55.6161L40.061 55.6169L38.5313 56.5001L40.0612 57.3833C40.0616 57.3836 40.062 57.3838 40.0624 57.384C40.5407 57.6602 40.7045 58.2718 40.4284 58.7501C40.1522 59.2284 39.5407 59.3922 39.0624 59.1161L37.5313 58.2321V60C37.5313 60.5523 37.0836 61 36.5313 61C35.979 61 35.5313 60.5523 35.5313 60V58.2321L34.0002 59.1161L34.0002 59.1161L34.0002 59.1161C33.5219 59.3922 32.9103 59.2284 32.6341 58.7501C32.358 58.2718 32.5219 57.6602 33.0002 57.384L33.0035 57.3821L34.5313 56.5001L33.0036 55.6181C33.0025 55.6174 33.0013 55.6167 33.0002 55.6161C32.5219 55.3399 32.358 54.7284 32.6341 54.2501C32.9103 53.7718 33.5219 53.6079 34.0002 53.884C34.0002 53.884 34.0002 53.884 34.0002 53.884L34.0002 53.884L35.5313 54.768V53C35.5313 52.4477 35.979 52 36.5313 52C37.0836 52 37.5313 52.4477 37.5313 53Z" fill="#E2E8F0"/>
</g>
<g style="mix-blend-mode:color">
<path fill-rule="evenodd" clip-rule="evenodd" d="M37.5313 53V54.768L39.0624 53.884C39.5407 53.6079 40.1522 53.7718 40.4284 54.2501C40.7045 54.7284 40.5407 55.3399 40.0624 55.6161L40.061 55.6169L38.5313 56.5001L40.0612 57.3833C40.0616 57.3836 40.062 57.3838 40.0624 57.384C40.5407 57.6602 40.7045 58.2718 40.4284 58.7501C40.1522 59.2284 39.5407 59.3922 39.0624 59.1161L37.5313 58.2321V60C37.5313 60.5523 37.0836 61 36.5313 61C35.979 61 35.5313 60.5523 35.5313 60V58.2321L34.0002 59.1161L34.0002 59.1161L34.0002 59.1161C33.5219 59.3922 32.9103 59.2284 32.6341 58.7501C32.358 58.2718 32.5219 57.6602 33.0002 57.384L33.0035 57.3821L34.5313 56.5001L33.0036 55.6181C33.0025 55.6174 33.0013 55.6167 33.0002 55.6161C32.5219 55.3399 32.358 54.7284 32.6341 54.2501C32.9103 53.7718 33.5219 53.6079 34.0002 53.884C34.0002 53.884 34.0002 53.884 34.0002 53.884L34.0002 53.884L35.5313 54.768V53C35.5313 52.4477 35.979 52 36.5313 52C37.0836 52 37.5313 52.4477 37.5313 53Z" fill="#BFDBFE"/>
</g>
<circle cx="36.5342" cy="53.0498" r="0.75" fill="url(#paint11_linear_100_3036)"/>
<circle cx="33.5342" cy="54.75" r="0.75" fill="url(#paint12_linear_100_3036)"/>
<circle cx="33.5342" cy="58.25" r="0.75" fill="url(#paint13_linear_100_3036)"/>
<circle cx="39.5342" cy="54.75" r="0.75" fill="url(#paint14_linear_100_3036)"/>
<circle cx="39.5342" cy="58.25" r="0.75" fill="url(#paint15_linear_100_3036)"/>
<g filter="url(#filter16_dii_100_3036)">
<path fill-rule="evenodd" clip-rule="evenodd" d="M47.5313 53V54.768L49.0624 53.884C49.5407 53.6079 50.1522 53.7718 50.4284 54.2501C50.7045 54.7284 50.5407 55.3399 50.0624 55.6161L50.061 55.6169L48.5313 56.5001L50.0612 57.3833C50.0616 57.3836 50.062 57.3838 50.0624 57.384C50.5407 57.6602 50.7045 58.2718 50.4284 58.7501C50.1522 59.2284 49.5407 59.3922 49.0624 59.1161L47.5313 58.2321V60C47.5313 60.5523 47.0836 61 46.5313 61C45.979 61 45.5313 60.5523 45.5313 60V58.2321L44.0002 59.1161L44.0002 59.1161L44.0002 59.1161C43.5219 59.3922 42.9103 59.2284 42.6341 58.7501C42.358 58.2718 42.5219 57.6602 43.0002 57.384L43.0035 57.3821L44.5313 56.5001L43.0036 55.6181C43.0025 55.6174 43.0013 55.6167 43.0002 55.6161C42.5219 55.3399 42.358 54.7284 42.6341 54.2501C42.9103 53.7718 43.5219 53.6079 44.0002 53.884C44.0002 53.884 44.0002 53.884 44.0002 53.884L44.0002 53.884L45.5313 54.768V53C45.5313 52.4477 45.979 52 46.5313 52C47.0836 52 47.5313 52.4477 47.5313 53Z" fill="#E2E8F0"/>
</g>
<g style="mix-blend-mode:color">
<path fill-rule="evenodd" clip-rule="evenodd" d="M47.5313 53V54.768L49.0624 53.884C49.5407 53.6079 50.1522 53.7718 50.4284 54.2501C50.7045 54.7284 50.5407 55.3399 50.0624 55.6161L50.061 55.6169L48.5313 56.5001L50.0612 57.3833C50.0616 57.3836 50.062 57.3838 50.0624 57.384C50.5407 57.6602 50.7045 58.2718 50.4284 58.7501C50.1522 59.2284 49.5407 59.3922 49.0624 59.1161L47.5313 58.2321V60C47.5313 60.5523 47.0836 61 46.5313 61C45.979 61 45.5313 60.5523 45.5313 60V58.2321L44.0002 59.1161L44.0002 59.1161L44.0002 59.1161C43.5219 59.3922 42.9103 59.2284 42.6341 58.7501C42.358 58.2718 42.5219 57.6602 43.0002 57.384L43.0035 57.3821L44.5313 56.5001L43.0036 55.6181C43.0025 55.6174 43.0013 55.6167 43.0002 55.6161C42.5219 55.3399 42.358 54.7284 42.6341 54.2501C42.9103 53.7718 43.5219 53.6079 44.0002 53.884C44.0002 53.884 44.0002 53.884 44.0002 53.884L44.0002 53.884L45.5313 54.768V53C45.5313 52.4477 45.979 52 46.5313 52C47.0836 52 47.5313 52.4477 47.5313 53Z" fill="#BFDBFE"/>
</g>
<circle cx="46.5342" cy="53.0498" r="0.75" fill="url(#paint16_linear_100_3036)"/>
<circle cx="43.5342" cy="54.75" r="0.75" fill="url(#paint17_linear_100_3036)"/>
<circle cx="43.5342" cy="58.25" r="0.75" fill="url(#paint18_linear_100_3036)"/>
<circle cx="49.5342" cy="54.75" r="0.75" fill="url(#paint19_linear_100_3036)"/>
<circle cx="49.5342" cy="58.25" r="0.75" fill="url(#paint20_linear_100_3036)"/>
<g style="mix-blend-mode:color" filter="url(#filter17_f_100_3036)">
<path fill-rule="evenodd" clip-rule="evenodd" d="M44 19.5C42.6326 19.8419 39.4038 22.3554 38.5 23.4851C37.3579 24.9128 36.445 27.0956 36 28.8755C34.1166 28.3374 31.7456 28.5966 29.8017 29.9851C27.8578 31.3736 26.6614 33.6148 27 35.9851C25.3441 36.3163 23.8075 36.4391 22.5 37.4851C20.6525 38.9631 19.5 40.5875 19.5 41.4851C19.5 40.3864 20.0316 37.8337 22.1662 36.1119C23.1868 35.1023 24.125 34.8531 25.5 34.4851C25.461 33.0122 26.3387 29.8921 29 27.9851C30.6146 26.7 33.0256 26.5932 35 26.9851C35.3255 26.0662 36.248 24.3747 37.6096 22.6727C39.1049 20.8036 41.7081 20.073 44 19.5Z" fill="#FFCC00"/>
</g>
<defs>
<filter id="filter0_d_100_3036" x="0.5" y="0" width="56" height="56" filterUnits="userSpaceOnUse" color-interpolation-filters="sRGB">
<feFlood flood-opacity="0" result="BackgroundImageFix"/>
<feColorMatrix in="SourceAlpha" type="matrix" values="0 0 0 0 0 0 0 0 0 0 0 0 0 0 0 0 0 0 127 0" result="hardAlpha"/>
<feOffset/>
<feGaussianBlur stdDeviation="5"/>
<feComposite in2="hardAlpha" operator="out"/>
<feColorMatrix type="matrix" values="0 0 0 0 0.980392 0 0 0 0 0.8 0 0 0 0 0.0823529 0 0 0 0.7 0"/>
<feBlend mode="normal" in2="BackgroundImageFix" result="effect1_dropShadow_100_3036"/>
<feBlend mode="normal" in="SourceGraphic" in2="effect1_dropShadow_100_3036" result="shape"/>
</filter>
<filter id="filter1_i_100_3036" x="16.5" y="14.9995" width="24" height="25" filterUnits="userSpaceOnUse" color-interpolation-filters="sRGB">
<feFlood flood-opacity="0" result="BackgroundImageFix"/>
<feBlend mode="normal" in="SourceGraphic" in2="BackgroundImageFix" result="shape"/>
<feColorMatrix in="SourceAlpha" type="matrix" values="0 0 0 0 0 0 0 0 0 0 0 0 0 0 0 0 0 0 127 0" result="hardAlpha"/>
<feOffset dy="-1"/>
<feGaussianBlur stdDeviation="1"/>
<feComposite in2="hardAlpha" operator="arithmetic" k2="-1" k3="1"/>
<feColorMatrix type="matrix" values="0 0 0 0 0.992157 0 0 0 0 0.878431 0 0 0 0 0.278431 0 0 0 1 0"/>
<feBlend mode="normal" in2="shape" result="effect1_innerShadow_100_3036"/>
</filter>
<filter id="filter2_ii_100_3036" x="16.5" y="14.9995" width="24" height="26" filterUnits="userSpaceOnUse" color-interpolation-filters="sRGB">
<feFlood flood-opacity="0" result="BackgroundImageFix"/>
<feBlend mode="normal" in="SourceGraphic" in2="BackgroundImageFix" result="shape"/>
<feColorMatrix in="SourceAlpha" type="matrix" values="0 0 0 0 0 0 0 0 0 0 0 0 0 0 0 0 0 0 127 0" result="hardAlpha"/>
<feOffset dy="-1"/>
<feGaussianBlur stdDeviation="1.5"/>
<feComposite in2="hardAlpha" operator="arithmetic" k2="-1" k3="1"/>
<feColorMatrix type="matrix" values="0 0 0 0 0.992157 0 0 0 0 0.878431 0 0 0 0 0.278431 0 0 0 1 0"/>
<feBlend mode="normal" in2="shape" result="effect1_innerShadow_100_3036"/>
<feColorMatrix in="SourceAlpha" type="matrix" values="0 0 0 0 0 0 0 0 0 0 0 0 0 0 0 0 0 0 127 0" result="hardAlpha"/>
<feOffset dy="1"/>
<feGaussianBlur stdDeviation="0.5"/>
<feComposite in2="hardAlpha" operator="arithmetic" k2="-1" k3="1"/>
<feColorMatrix type="matrix" values="0 0 0 0 0.996078 0 0 0 0 0.941176 0 0 0 0 0.541176 0 0 0 1 0"/>
<feBlend mode="normal" in2="effect1_innerShadow_100_3036" result="effect2_innerShadow_100_3036"/>
</filter>
<filter id="filter3_f_100_3036" x="19.5" y="15.9995" width="18" height="14" filterUnits="userSpaceOnUse" color-interpolation-filters="sRGB">
<feFlood flood-opacity="0" result="BackgroundImageFix"/>
<feBlend mode="normal" in="SourceGraphic" in2="BackgroundImageFix" result="shape"/>
<feGaussianBlur stdDeviation="1" result="effect1_foregroundBlur_100_3036"/>
</filter>
<filter id="filter4_f_100_3036" x="21.5" y="46" width="40" height="15" filterUnits="userSpaceOnUse" color-interpolation-filters="sRGB">
<feFlood flood-opacity="0" result="BackgroundImageFix"/>
<feBlend mode="normal" in="SourceGraphic" in2="BackgroundImageFix" result="shape"/>
<feGaussianBlur stdDeviation="1" result="effect1_foregroundBlur_100_3036"/>
</filter>
<filter id="filter5_d_100_3036" x="15.5" y="17" width="54" height="38" filterUnits="userSpaceOnUse" color-interpolation-filters="sRGB">
<feFlood flood-opacity="0" result="BackgroundImageFix"/>
<feColorMatrix in="SourceAlpha" type="matrix" values="0 0 0 0 0 0 0 0 0 0 0 0 0 0 0 0 0 0 127 0" result="hardAlpha"/>
<feOffset dy="2"/>
<feGaussianBlur stdDeviation="2"/>
<feComposite in2="hardAlpha" operator="out"/>
<feColorMatrix type="matrix" values="0 0 0 0 0.278431 0 0 0 0 0.333333 0 0 0 0 0.411765 0 0 0 0.4 0"/>
<feBlend mode="normal" in2="BackgroundImageFix" result="effect1_dropShadow_100_3036"/>
<feBlend mode="normal" in="SourceGraphic" in2="effect1_dropShadow_100_3036" result="shape"/>
</filter>
<filter id="filter6_ii_100_3036" x="19.5" y="29" width="46" height="22" filterUnits="userSpaceOnUse" color-interpolation-filters="sRGB">
<feFlood flood-opacity="0" result="BackgroundImageFix"/>
<feBlend mode="normal" in="SourceGraphic" in2="BackgroundImageFix" result="shape"/>
<feColorMatrix in="SourceAlpha" type="matrix" values="0 0 0 0 0 0 0 0 0 0 0 0 0 0 0 0 0 0 127 0" result="hardAlpha"/>
<feOffset dy="2"/>
<feGaussianBlur stdDeviation="1"/>
<feComposite in2="hardAlpha" operator="arithmetic" k2="-1" k3="1"/>
<feColorMatrix type="matrix" values="0 0 0 0 0.796078 0 0 0 0 0.835294 0 0 0 0 0.882353 0 0 0 1 0"/>
<feBlend mode="normal" in2="shape" result="effect1_innerShadow_100_3036"/>
<feColorMatrix in="SourceAlpha" type="matrix" values="0 0 0 0 0 0 0 0 0 0 0 0 0 0 0 0 0 0 127 0" result="hardAlpha"/>
<feOffset dy="-2"/>
<feGaussianBlur stdDeviation="1"/>
<feComposite in2="hardAlpha" operator="arithmetic" k2="-1" k3="1"/>
<feColorMatrix type="matrix" values="0 0 0 0 0.796078 0 0 0 0 0.835294 0 0 0 0 0.882353 0 0 0 0.6 0"/>
<feBlend mode="normal" in2="effect1_innerShadow_100_3036" result="effect2_innerShadow_100_3036"/>
</filter>
<filter id="filter7_f_100_3036" x="19.5" y="35" width="14" height="14" filterUnits="userSpaceOnUse" color-interpolation-filters="sRGB">
<feFlood flood-opacity="0" result="BackgroundImageFix"/>
<feBlend mode="normal" in="SourceGraphic" in2="BackgroundImageFix" result="shape"/>
<feGaussianBlur stdDeviation="1" result="effect1_foregroundBlur_100_3036"/>
</filter>
<filter id="filter8_i_100_3036" x="25.5" y="27" width="16" height="18" filterUnits="userSpaceOnUse" color-interpolation-filters="sRGB">
<feFlood flood-opacity="0" result="BackgroundImageFix"/>
<feBlend mode="normal" in="SourceGraphic" in2="BackgroundImageFix" result="shape"/>
<feColorMatrix in="SourceAlpha" type="matrix" values="0 0 0 0 0 0 0 0 0 0 0 0 0 0 0 0 0 0 127 0" result="hardAlpha"/>
<feOffset dy="2"/>
<feGaussianBlur stdDeviation="1"/>
<feComposite in2="hardAlpha" operator="arithmetic" k2="-1" k3="1"/>
<feColorMatrix type="matrix" values="0 0 0 0 0.796078 0 0 0 0 0.835294 0 0 0 0 0.882353 0 0 0 1 0"/>
<feBlend mode="normal" in2="shape" result="effect1_innerShadow_100_3036"/>
</filter>
<filter id="filter9_f_100_3036" x="25.5" y="27" width="16" height="14" filterUnits="userSpaceOnUse" color-interpolation-filters="sRGB">
<feFlood flood-opacity="0" result="BackgroundImageFix"/>
<feBlend mode="normal" in="SourceGraphic" in2="BackgroundImageFix" result="shape"/>
<feGaussianBlur stdDeviation="1" result="effect1_foregroundBlur_100_3036"/>
</filter>
<filter id="filter10_f_100_3036" x="50.5" y="32" width="14" height="14" filterUnits="userSpaceOnUse" color-interpolation-filters="sRGB">
<feFlood flood-opacity="0" result="BackgroundImageFix"/>
<feBlend mode="normal" in="SourceGraphic" in2="BackgroundImageFix" result="shape"/>
<feGaussianBlur stdDeviation="1" result="effect1_foregroundBlur_100_3036"/>
</filter>
<filter id="filter11_i_100_3036" x="34.5" y="19" width="25" height="27" filterUnits="userSpaceOnUse" color-interpolation-filters="sRGB">
<feFlood flood-opacity="0" result="BackgroundImageFix"/>
<feBlend mode="normal" in="SourceGraphic" in2="BackgroundImageFix" result="shape"/>
<feColorMatrix in="SourceAlpha" type="matrix" values="0 0 0 0 0 0 0 0 0 0 0 0 0 0 0 0 0 0 127 0" result="hardAlpha"/>
<feOffset dy="2"/>
<feGaussianBlur stdDeviation="1"/>
<feComposite in2="hardAlpha" operator="arithmetic" k2="-1" k3="1"/>
<feColorMatrix type="matrix" values="0 0 0 0 0.796078 0 0 0 0 0.835294 0 0 0 0 0.882353 0 0 0 1 0"/>
<feBlend mode="normal" in2="shape" result="effect1_innerShadow_100_3036"/>
</filter>
<filter id="filter12_f_100_3036" x="37.5" y="19" width="18" height="14" filterUnits="userSpaceOnUse" color-interpolation-filters="sRGB">
<feFlood flood-opacity="0" result="BackgroundImageFix"/>
<feBlend mode="normal" in="SourceGraphic" in2="BackgroundImageFix" result="shape"/>
<feGaussianBlur stdDeviation="1" result="effect1_foregroundBlur_100_3036"/>
</filter>
<filter id="filter13_i_100_3036" x="33.5" y="33" width="18" height="15" filterUnits="userSpaceOnUse" color-interpolation-filters="sRGB">
<feFlood flood-opacity="0" result="BackgroundImageFix"/>
<feBlend mode="normal" in="SourceGraphic" in2="BackgroundImageFix" result="shape"/>
<feColorMatrix in="SourceAlpha" type="matrix" values="0 0 0 0 0 0 0 0 0 0 0 0 0 0 0 0 0 0 127 0" result="hardAlpha"/>
<feOffset dy="2"/>
<feGaussianBlur stdDeviation="1"/>
<feComposite in2="hardAlpha" operator="arithmetic" k2="-1" k3="1"/>
<feColorMatrix type="matrix" values="0 0 0 0 0.796078 0 0 0 0 0.835294 0 0 0 0 0.882353 0 0 0 0.6 0"/>
<feBlend mode="normal" in2="shape" result="effect1_innerShadow_100_3036"/>
</filter>
<filter id="filter14_f_100_3036" x="33.5" y="33" width="18" height="13" filterUnits="userSpaceOnUse" color-interpolation-filters="sRGB">
<feFlood flood-opacity="0" result="BackgroundImageFix"/>
<feBlend mode="normal" in="SourceGraphic" in2="BackgroundImageFix" result="shape"/>
<feGaussianBlur stdDeviation="1" result="effect1_foregroundBlur_100_3036"/>
</filter>
<filter id="filter15_dii_100_3036" x="29.5" y="50" width="14.0625" height="15" filterUnits="userSpaceOnUse" color-interpolation-filters="sRGB">
<feFlood flood-opacity="0" result="BackgroundImageFix"/>
<feColorMatrix in="SourceAlpha" type="matrix" values="0 0 0 0 0 0 0 0 0 0 0 0 0 0 0 0 0 0 127 0" result="hardAlpha"/>
<feOffset dy="1"/>
<feGaussianBlur stdDeviation="1.5"/>
<feComposite in2="hardAlpha" operator="out"/>
<feColorMatrix type="matrix" values="0 0 0 0 0.278431 0 0 0 0 0.333333 0 0 0 0 0.411765 0 0 0 0.3 0"/>
<feBlend mode="normal" in2="BackgroundImageFix" result="effect1_dropShadow_100_3036"/>
<feBlend mode="normal" in="SourceGraphic" in2="effect1_dropShadow_100_3036" result="shape"/>
<feColorMatrix in="SourceAlpha" type="matrix" values="0 0 0 0 0 0 0 0 0 0 0 0 0 0 0 0 0 0 127 0" result="hardAlpha"/>
<feOffset dy="0.5"/>
<feGaussianBlur stdDeviation="0.25"/>
<feComposite in2="hardAlpha" operator="arithmetic" k2="-1" k3="1"/>
<feColorMatrix type="matrix" values="0 0 0 0 0.580392 0 0 0 0 0.639216 0 0 0 0 0.721569 0 0 0 1 0"/>
<feBlend mode="normal" in2="shape" result="effect2_innerShadow_100_3036"/>
<feColorMatrix in="SourceAlpha" type="matrix" values="0 0 0 0 0 0 0 0 0 0 0 0 0 0 0 0 0 0 127 0" result="hardAlpha"/>
<feOffset dy="-0.5"/>
<feGaussianBlur stdDeviation="0.25"/>
<feComposite in2="hardAlpha" operator="arithmetic" k2="-1" k3="1"/>
<feColorMatrix type="matrix" values="0 0 0 0 0.580392 0 0 0 0 0.639216 0 0 0 0 0.721569 0 0 0 1 0"/>
<feBlend mode="normal" in2="effect2_innerShadow_100_3036" result="effect3_innerShadow_100_3036"/>
</filter>
<filter id="filter16_dii_100_3036" x="39.5" y="50" width="14.0625" height="15" filterUnits="userSpaceOnUse" color-interpolation-filters="sRGB">
<feFlood flood-opacity="0" result="BackgroundImageFix"/>
<feColorMatrix in="SourceAlpha" type="matrix" values="0 0 0 0 0 0 0 0 0 0 0 0 0 0 0 0 0 0 127 0" result="hardAlpha"/>
<feOffset dy="1"/>
<feGaussianBlur stdDeviation="1.5"/>
<feComposite in2="hardAlpha" operator="out"/>
<feColorMatrix type="matrix" values="0 0 0 0 0.278431 0 0 0 0 0.333333 0 0 0 0 0.411765 0 0 0 0.3 0"/>
<feBlend mode="normal" in2="BackgroundImageFix" result="effect1_dropShadow_100_3036"/>
<feBlend mode="normal" in="SourceGraphic" in2="effect1_dropShadow_100_3036" result="shape"/>
<feColorMatrix in="SourceAlpha" type="matrix" values="0 0 0 0 0 0 0 0 0 0 0 0 0 0 0 0 0 0 127 0" result="hardAlpha"/>
<feOffset dy="0.5"/>
<feGaussianBlur stdDeviation="0.25"/>
<feComposite in2="hardAlpha" operator="arithmetic" k2="-1" k3="1"/>
<feColorMatrix type="matrix" values="0 0 0 0 0.580392 0 0 0 0 0.639216 0 0 0 0 0.721569 0 0 0 1 0"/>
<feBlend mode="normal" in2="shape" result="effect2_innerShadow_100_3036"/>
<feColorMatrix in="SourceAlpha" type="matrix" values="0 0 0 0 0 0 0 0 0 0 0 0 0 0 0 0 0 0 127 0" result="hardAlpha"/>
<feOffset dy="-0.5"/>
<feGaussianBlur stdDeviation="0.25"/>
<feComposite in2="hardAlpha" operator="arithmetic" k2="-1" k3="1"/>
<feColorMatrix type="matrix" values="0 0 0 0 0.580392 0 0 0 0 0.639216 0 0 0 0 0.721569 0 0 0 1 0"/>
<feBlend mode="normal" in2="effect2_innerShadow_100_3036" result="effect3_innerShadow_100_3036"/>
</filter>
<filter id="filter17_f_100_3036" x="17.5" y="17.5" width="28.5" height="25.9854" filterUnits="userSpaceOnUse" color-interpolation-filters="sRGB">
<feFlood flood-opacity="0" result="BackgroundImageFix"/>
<feBlend mode="normal" in="SourceGraphic" in2="BackgroundImageFix" result="shape"/>
<feGaussianBlur stdDeviation="1" result="effect1_foregroundBlur_100_3036"/>
</filter>
<radialGradient id="paint0_radial_100_3036" cx="0" cy="0" r="1" gradientUnits="userSpaceOnUse" gradientTransform="translate(28.5 15.9995) rotate(90) scale(30 29.9999)">
<stop stop-color="#FACC15"/>
<stop offset="1" stop-color="#D97706"/>
</radialGradient>
<linearGradient id="paint1_linear_100_3036" x1="28.5" y1="15.9995" x2="28.5" y2="39.9995" gradientUnits="userSpaceOnUse">
<stop stop-color="#FEF08A"/>
<stop offset="1" stop-color="#F59E0B"/>
</linearGradient>
<linearGradient id="paint2_linear_100_3036" x1="28.5" y1="15.9995" x2="28.5" y2="39.9995" gradientUnits="userSpaceOnUse">
<stop stop-color="#FFF28F"/>
<stop offset="1" stop-color="#F79B00"/>
</linearGradient>
<linearGradient id="paint3_linear_100_3036" x1="28.5" y1="17.9995" x2="28.5" y2="27.9995" gradientUnits="userSpaceOnUse">
<stop stop-color="#FEF9C3"/>
<stop offset="1" stop-color="#FEF9C3" stop-opacity="0"/>
<stop offset="1" stop-color="#FEF9C3" stop-opacity="0.2"/>
</linearGradient>
<linearGradient id="paint4_linear_100_3036" x1="41.5" y1="48" x2="41.5" y2="59" gradientUnits="userSpaceOnUse">
<stop stop-color="#BAE6FD"/>
<stop offset="1" stop-color="#BAE6FD" stop-opacity="0"/>
</linearGradient>
<linearGradient id="paint5_linear_100_3036" x1="26.5" y1="37" x2="26.5" y2="47" gradientUnits="userSpaceOnUse">
<stop stop-color="white"/>
<stop offset="1" stop-color="#F3F3F3" stop-opacity="0.2"/>
</linearGradient>
<linearGradient id="paint6_linear_100_3036" x1="33.5" y1="29" x2="33.5" y2="39" gradientUnits="userSpaceOnUse">
<stop stop-color="white"/>
<stop offset="1" stop-color="#F3F3F3" stop-opacity="0.2"/>
</linearGradient>
<linearGradient id="paint7_linear_100_3036" x1="57.5" y1="34" x2="57.5" y2="44" gradientUnits="userSpaceOnUse">
<stop stop-color="white"/>
<stop offset="1" stop-color="#F3F3F3" stop-opacity="0.2"/>
</linearGradient>
<linearGradient id="paint8_linear_100_3036" x1="46.5" y1="21" x2="46.5" y2="31" gradientUnits="userSpaceOnUse">
<stop stop-color="white"/>
<stop offset="1" stop-color="#F3F3F3" stop-opacity="0.2"/>
</linearGradient>
<linearGradient id="paint9_linear_100_3036" x1="42.5" y1="33" x2="42.5" y2="46" gradientUnits="userSpaceOnUse">
<stop stop-color="#F1F5F9"/>
<stop offset="0.650321" stop-color="#F1F5F9" stop-opacity="0"/>
</linearGradient>
<linearGradient id="paint10_linear_100_3036" x1="42.5" y1="35" x2="42.5" y2="44" gradientUnits="userSpaceOnUse">
<stop stop-color="white"/>
<stop offset="1" stop-color="#F3F3F3" stop-opacity="0.2"/>
</linearGradient>
<linearGradient id="paint11_linear_100_3036" x1="36.5342" y1="52.2998" x2="36.5342" y2="53.7998" gradientUnits="userSpaceOnUse">
<stop stop-color="#E2E8F0"/>
<stop offset="1" stop-color="#E2E8F0" stop-opacity="0"/>
</linearGradient>
<linearGradient id="paint12_linear_100_3036" x1="33.5342" y1="54" x2="33.5342" y2="55.5" gradientUnits="userSpaceOnUse">
<stop stop-color="#E2E8F0"/>
<stop offset="1" stop-color="#E2E8F0" stop-opacity="0"/>
</linearGradient>
<linearGradient id="paint13_linear_100_3036" x1="33.5342" y1="57.5" x2="33.5342" y2="59" gradientUnits="userSpaceOnUse">
<stop stop-color="#E2E8F0"/>
<stop offset="1" stop-color="#E2E8F0" stop-opacity="0"/>
</linearGradient>
<linearGradient id="paint14_linear_100_3036" x1="39.5342" y1="54" x2="39.5342" y2="55.5" gradientUnits="userSpaceOnUse">
<stop stop-color="#E2E8F0"/>
<stop offset="1" stop-color="#E2E8F0" stop-opacity="0"/>
</linearGradient>
<linearGradient id="paint15_linear_100_3036" x1="39.5342" y1="57.5" x2="39.5342" y2="59" gradientUnits="userSpaceOnUse">
<stop stop-color="#E2E8F0"/>
<stop offset="1" stop-color="#E2E8F0" stop-opacity="0"/>
</linearGradient>
<linearGradient id="paint16_linear_100_3036" x1="46.5342" y1="52.2998" x2="46.5342" y2="53.7998" gradientUnits="userSpaceOnUse">
<stop stop-color="#E2E8F0"/>
<stop offset="1" stop-color="#E2E8F0" stop-opacity="0"/>
</linearGradient>
<linearGradient id="paint17_linear_100_3036" x1="43.5342" y1="54" x2="43.5342" y2="55.5" gradientUnits="userSpaceOnUse">
<stop stop-color="#E2E8F0"/>
<stop offset="1" stop-color="#E2E8F0" stop-opacity="0"/>
</linearGradient>
<linearGradient id="paint18_linear_100_3036" x1="43.5342" y1="57.5" x2="43.5342" y2="59" gradientUnits="userSpaceOnUse">
<stop stop-color="#E2E8F0"/>
<stop offset="1" stop-color="#E2E8F0" stop-opacity="0"/>
</linearGradient>
<linearGradient id="paint19_linear_100_3036" x1="49.5342" y1="54" x2="49.5342" y2="55.5" gradientUnits="userSpaceOnUse">
<stop stop-color="#E2E8F0"/>
<stop offset="1" stop-color="#E2E8F0" stop-opacity="0"/>
</linearGradient>
<linearGradient id="paint20_linear_100_3036" x1="49.5342" y1="57.5" x2="49.5342" y2="59" gradientUnits="userSpaceOnUse">
<stop stop-color="#E2E8F0"/>
<stop offset="1" stop-color="#E2E8F0" stop-opacity="0"/>
</linearGradient>
</defs>
</svg>
