<svg width="1em" height="1em" viewBox="0 0 65 64" fill="none" xmlns="http://www.w3.org/2000/svg">
<path d="M44.6455 51.7083C40.453 51.7083 37.0309 48.2067 37.0309 43.9167V43C37.0309 42.2483 37.6401 41.625 38.3747 41.625C39.1093 41.625 39.7184 42.2483 39.7184 43V43.9167C39.7184 46.7033 41.9222 48.9583 44.6455 48.9583C47.3688 48.9583 49.5726 46.7033 49.5726 43.9167C49.5726 41.13 47.3688 38.875 44.6455 38.875H15.083C14.3484 38.875 13.7393 38.2517 13.7393 37.5C13.7393 36.7483 14.3484 36.125 15.083 36.125H44.6455C48.838 36.125 52.2601 39.6267 52.2601 43.9167C52.2601 48.2067 48.838 51.7083 44.6455 51.7083Z" fill="white"/>
<path d="M44.6455 33.3748H15.083C14.3484 33.3748 13.7393 32.7515 13.7393 31.9998C13.7393 31.2482 14.3484 30.6248 15.083 30.6248H44.6455C47.3688 30.6248 49.5726 28.3698 49.5726 25.5832C49.5726 22.7965 47.3688 20.5415 44.6455 20.5415C41.9222 20.5415 39.7184 22.7965 39.7184 25.5832V26.4998C39.7184 27.2515 39.1093 27.8748 38.3747 27.8748C37.6401 27.8748 37.0309 27.2515 37.0309 26.4998V25.5832C37.0309 21.2932 40.453 17.7915 44.6455 17.7915C48.838 17.7915 52.2601 21.2932 52.2601 25.5832C52.2601 29.8732 48.838 33.3748 44.6455 33.3748Z" fill="white"/>
<path d="M28.1801 27.8751H15.083C14.3484 27.8751 13.7393 27.2517 13.7393 26.5001C13.7393 25.7484 14.3484 25.1251 15.083 25.1251H28.1801C30.0972 25.1251 31.6559 23.5301 31.6559 21.5684C31.6559 19.6067 30.0972 18.0117 28.1801 18.0117C26.263 18.0117 24.7043 19.6067 24.7043 21.5684V22.2651C24.7043 23.0167 24.0951 23.6401 23.3605 23.6401C22.6259 23.6401 22.0168 23.0351 22.0168 22.2651V21.5684C22.0168 18.0851 24.7759 15.2617 28.1801 15.2617C31.5843 15.2617 34.3434 18.0851 34.3434 21.5684C34.3434 25.0517 31.5843 27.8751 28.1801 27.8751Z" fill="white"/>
</svg>
