<svg width="1em" height="1em" viewBox="0 0 65 64" fill="none" xmlns="http://www.w3.org/2000/svg">
<g filter="url(#filter0_f_100_3211)">
<path d="M17.5645 47.7391C16.6355 43.913 14.4677 42.3188 13.5 42H49.5C47.9516 43.7536 46.0161 46.2087 46.0161 47.7391C46.0161 49.2696 46.4032 51.8841 47.1774 53H16.4032C17.1774 52.8406 18.4935 51.5652 17.5645 47.7391Z" fill="url(#paint0_linear_100_3211)"/>
</g>
<g filter="url(#filter1_d_100_3211)">
<path fill-rule="evenodd" clip-rule="evenodd" d="M49.5 25.5121C49.5 25.5081 49.5 25.504 49.5 25.5C49.5 18.5964 43.9036 13 37 13C31.6094 13 27.0158 16.4122 25.2613 21.1945C24.6946 21.0672 24.1051 21 23.5 21C19.0817 21 15.5 24.5817 15.5 29C15.5 29.0236 15.5001 29.0473 15.5003 29.0708C12.1079 29.5559 9.5 32.4734 9.5 36C9.5 39.866 12.634 43 16.5 43H46.5C51.4706 43 55.5 38.9706 55.5 34C55.5 30.0813 52.9956 26.7476 49.5 25.5121Z" fill="#64748B"/>
</g>
<g filter="url(#filter2_ii_100_3211)">
<path fill-rule="evenodd" clip-rule="evenodd" d="M55.5 34C55.5 38.9706 51.4706 43 46.5 43H16.5C12.634 43 9.5 39.866 9.5 36C9.5 32.134 12.634 29 16.5 29C19.2924 29 21.7029 30.6351 22.8264 33H37.5549C38.0524 28.5 41.8674 25 46.5 25C51.4706 25 55.5 29.0294 55.5 34Z" fill="#F1F5F9"/>
</g>
<g filter="url(#filter3_f_100_3211)">
<circle cx="16.5" cy="36" r="5" fill="url(#paint1_linear_100_3211)" style="mix-blend-mode:soft-light"/>
</g>
<g filter="url(#filter4_i_100_3211)">
<circle cx="23.5" cy="29" r="8" fill="#F1F5F9"/>
</g>
<g filter="url(#filter5_f_100_3211)">
<ellipse cx="23.5" cy="28" rx="6" ry="5" fill="url(#paint2_linear_100_3211)" style="mix-blend-mode:soft-light"/>
</g>
<g filter="url(#filter6_f_100_3211)">
<circle cx="47.5" cy="33" r="5" fill="url(#paint3_linear_100_3211)" style="mix-blend-mode:soft-light"/>
</g>
<g filter="url(#filter7_i_100_3211)">
<circle cx="37" cy="25.5" r="12.5" fill="#F1F5F9"/>
</g>
<g filter="url(#filter8_f_100_3211)">
<ellipse cx="36.5" cy="20" rx="7" ry="5" fill="url(#paint4_linear_100_3211)" style="mix-blend-mode:soft-light"/>
</g>
<g filter="url(#filter9_i_100_3211)">
<ellipse cx="32.5" cy="33.5" rx="9" ry="6.5" fill="url(#paint5_linear_100_3211)"/>
</g>
<g filter="url(#filter10_f_100_3211)">
<ellipse cx="32.5" cy="33.5" rx="7" ry="4.5" fill="url(#paint6_linear_100_3211)" style="mix-blend-mode:soft-light"/>
</g>
<path fill-rule="evenodd" clip-rule="evenodd" d="M49.5 25.5121C49.5 25.5081 49.5 25.504 49.5 25.5C49.5 18.5964 43.9036 13 37 13C31.6094 13 27.0158 16.4122 25.2613 21.1945C24.6946 21.0672 24.1051 21 23.5 21C19.0817 21 15.5 24.5817 15.5 29C15.5 29.0236 15.5001 29.0473 15.5003 29.0708C12.1079 29.5559 9.5 32.4734 9.5 36C9.5 39.866 12.634 43 16.5 43H46.5C51.4706 43 55.5 38.9706 55.5 34C55.5 30.0813 52.9956 26.7476 49.5 25.5121Z" fill="#93C5FD" style="mix-blend-mode:color"/>
<path fill-rule="evenodd" clip-rule="evenodd" d="M49.5 25.5121C49.5 25.5081 49.5 25.504 49.5 25.5C49.5 18.5964 43.9036 13 37 13C31.6094 13 27.0158 16.4122 25.2613 21.1945C24.6946 21.0672 24.1051 21 23.5 21C19.0817 21 15.5 24.5817 15.5 29C15.5 29.0236 15.5001 29.0473 15.5003 29.0708C12.1079 29.5559 9.5 32.4734 9.5 36C9.5 39.866 12.634 43 16.5 43H46.5C51.4706 43 55.5 38.9706 55.5 34C55.5 30.0813 52.9956 26.7476 49.5 25.5121Z" fill="#93C5FD" fill-opacity="0.2" style="mix-blend-mode:multiply"/>
<g filter="url(#filter11_dii_100_3211)">
<path fill-rule="evenodd" clip-rule="evenodd" d="M28.5313 47V48.768L30.0624 47.884C30.5407 47.6079 31.1522 47.7718 31.4284 48.2501C31.7045 48.7284 31.5407 49.3399 31.0624 49.6161L31.061 49.6169L29.5313 50.5001L31.0612 51.3833C31.0616 51.3836 31.062 51.3838 31.0624 51.384C31.5407 51.6602 31.7045 52.2718 31.4284 52.7501C31.1522 53.2284 30.5407 53.3922 30.0624 53.1161L28.5313 52.2321V54C28.5313 54.5523 28.0836 55 27.5313 55C26.979 55 26.5313 54.5523 26.5313 54V52.2321L25.0002 53.1161L25.0002 53.1161L25.0002 53.1161C24.5219 53.3922 23.9103 53.2284 23.6341 52.7501C23.358 52.2718 23.5219 51.6602 24.0002 51.384L24.0035 51.3821L25.5313 50.5001L24.0036 49.6181C24.0025 49.6174 24.0013 49.6167 24.0002 49.6161C23.5219 49.3399 23.358 48.7284 23.6341 48.2501C23.9103 47.7718 24.5219 47.6079 25.0002 47.884C25.0002 47.884 25.0002 47.884 25.0002 47.884L25.0002 47.884L26.5313 48.768V47C26.5313 46.4477 26.979 46 27.5313 46C28.0836 46 28.5313 46.4477 28.5313 47Z" fill="#E2E8F0"/>
</g>
<g style="mix-blend-mode:color">
<path fill-rule="evenodd" clip-rule="evenodd" d="M28.5313 47V48.768L30.0624 47.884C30.5407 47.6079 31.1522 47.7718 31.4284 48.2501C31.7045 48.7284 31.5407 49.3399 31.0624 49.6161L31.061 49.6169L29.5313 50.5001L31.0612 51.3833C31.0616 51.3836 31.062 51.3838 31.0624 51.384C31.5407 51.6602 31.7045 52.2718 31.4284 52.7501C31.1522 53.2284 30.5407 53.3922 30.0624 53.1161L28.5313 52.2321V54C28.5313 54.5523 28.0836 55 27.5313 55C26.979 55 26.5313 54.5523 26.5313 54V52.2321L25.0002 53.1161L25.0002 53.1161L25.0002 53.1161C24.5219 53.3922 23.9103 53.2284 23.6341 52.7501C23.358 52.2718 23.5219 51.6602 24.0002 51.384L24.0035 51.3821L25.5313 50.5001L24.0036 49.6181C24.0025 49.6174 24.0013 49.6167 24.0002 49.6161C23.5219 49.3399 23.358 48.7284 23.6341 48.2501C23.9103 47.7718 24.5219 47.6079 25.0002 47.884C25.0002 47.884 25.0002 47.884 25.0002 47.884L25.0002 47.884L26.5313 48.768V47C26.5313 46.4477 26.979 46 27.5313 46C28.0836 46 28.5313 46.4477 28.5313 47Z" fill="#BFDBFE"/>
</g>
<circle cx="27.5342" cy="47.0498" r="0.75" fill="url(#paint7_linear_100_3211)"/>
<circle cx="24.5342" cy="48.75" r="0.75" fill="url(#paint8_linear_100_3211)"/>
<circle cx="24.5342" cy="52.25" r="0.75" fill="url(#paint9_linear_100_3211)"/>
<circle cx="30.5342" cy="48.75" r="0.75" fill="url(#paint10_linear_100_3211)"/>
<circle cx="30.5342" cy="52.25" r="0.75" fill="url(#paint11_linear_100_3211)"/>
<g filter="url(#filter12_dii_100_3211)">
<path fill-rule="evenodd" clip-rule="evenodd" d="M38.5313 47V48.768L40.0624 47.884C40.5407 47.6079 41.1522 47.7718 41.4284 48.2501C41.7045 48.7284 41.5407 49.3399 41.0624 49.6161L41.061 49.6169L39.5313 50.5001L41.0612 51.3833C41.0616 51.3836 41.062 51.3838 41.0624 51.384C41.5407 51.6602 41.7045 52.2718 41.4284 52.7501C41.1522 53.2284 40.5407 53.3922 40.0624 53.1161L38.5313 52.2321V54C38.5313 54.5523 38.0836 55 37.5313 55C36.979 55 36.5313 54.5523 36.5313 54V52.2321L35.0002 53.1161L35.0002 53.1161L35.0002 53.1161C34.5219 53.3922 33.9103 53.2284 33.6341 52.7501C33.358 52.2718 33.5219 51.6602 34.0002 51.384L34.0035 51.3821L35.5313 50.5001L34.0036 49.6181C34.0025 49.6174 34.0013 49.6167 34.0002 49.6161C33.5219 49.3399 33.358 48.7284 33.6341 48.2501C33.9103 47.7718 34.5219 47.6079 35.0002 47.884C35.0002 47.884 35.0002 47.884 35.0002 47.884L35.0002 47.884L36.5313 48.768V47C36.5313 46.4477 36.979 46 37.5313 46C38.0836 46 38.5313 46.4477 38.5313 47Z" fill="#E2E8F0"/>
</g>
<g style="mix-blend-mode:color">
<path fill-rule="evenodd" clip-rule="evenodd" d="M38.5313 47V48.768L40.0624 47.884C40.5407 47.6079 41.1522 47.7718 41.4284 48.2501C41.7045 48.7284 41.5407 49.3399 41.0624 49.6161L41.061 49.6169L39.5313 50.5001L41.0612 51.3833C41.0616 51.3836 41.062 51.3838 41.0624 51.384C41.5407 51.6602 41.7045 52.2718 41.4284 52.7501C41.1522 53.2284 40.5407 53.3922 40.0624 53.1161L38.5313 52.2321V54C38.5313 54.5523 38.0836 55 37.5313 55C36.979 55 36.5313 54.5523 36.5313 54V52.2321L35.0002 53.1161L35.0002 53.1161L35.0002 53.1161C34.5219 53.3922 33.9103 53.2284 33.6341 52.7501C33.358 52.2718 33.5219 51.6602 34.0002 51.384L34.0035 51.3821L35.5313 50.5001L34.0036 49.6181C34.0025 49.6174 34.0013 49.6167 34.0002 49.6161C33.5219 49.3399 33.358 48.7284 33.6341 48.2501C33.9103 47.7718 34.5219 47.6079 35.0002 47.884C35.0002 47.884 35.0002 47.884 35.0002 47.884L35.0002 47.884L36.5313 48.768V47C36.5313 46.4477 36.979 46 37.5313 46C38.0836 46 38.5313 46.4477 38.5313 47Z" fill="#BFDBFE"/>
</g>
<circle cx="37.5342" cy="47.0498" r="0.75" fill="url(#paint12_linear_100_3211)"/>
<circle cx="34.5342" cy="48.75" r="0.75" fill="url(#paint13_linear_100_3211)"/>
<circle cx="34.5342" cy="52.25" r="0.75" fill="url(#paint14_linear_100_3211)"/>
<circle cx="40.5342" cy="48.75" r="0.75" fill="url(#paint15_linear_100_3211)"/>
<circle cx="40.5342" cy="52.25" r="0.75" fill="url(#paint16_linear_100_3211)"/>
<defs>
<filter id="filter0_f_100_3211" x="11.5" y="40" width="40" height="15" filterUnits="userSpaceOnUse" color-interpolation-filters="sRGB">
<feFlood flood-opacity="0" result="BackgroundImageFix"/>
<feBlend mode="normal" in="SourceGraphic" in2="BackgroundImageFix" result="shape"/>
<feGaussianBlur stdDeviation="1" result="effect1_foregroundBlur_100_3211"/>
</filter>
<filter id="filter1_d_100_3211" x="5.5" y="11" width="54" height="38" filterUnits="userSpaceOnUse" color-interpolation-filters="sRGB">
<feFlood flood-opacity="0" result="BackgroundImageFix"/>
<feColorMatrix in="SourceAlpha" type="matrix" values="0 0 0 0 0 0 0 0 0 0 0 0 0 0 0 0 0 0 127 0" result="hardAlpha"/>
<feOffset dy="2"/>
<feGaussianBlur stdDeviation="2"/>
<feComposite in2="hardAlpha" operator="out"/>
<feColorMatrix type="matrix" values="0 0 0 0 0.278431 0 0 0 0 0.333333 0 0 0 0 0.411765 0 0 0 0.4 0"/>
<feBlend mode="normal" in2="BackgroundImageFix" result="effect1_dropShadow_100_3211"/>
<feBlend mode="normal" in="SourceGraphic" in2="effect1_dropShadow_100_3211" result="shape"/>
</filter>
<filter id="filter2_ii_100_3211" x="9.5" y="23" width="46" height="22" filterUnits="userSpaceOnUse" color-interpolation-filters="sRGB">
<feFlood flood-opacity="0" result="BackgroundImageFix"/>
<feBlend mode="normal" in="SourceGraphic" in2="BackgroundImageFix" result="shape"/>
<feColorMatrix in="SourceAlpha" type="matrix" values="0 0 0 0 0 0 0 0 0 0 0 0 0 0 0 0 0 0 127 0" result="hardAlpha"/>
<feOffset dy="2"/>
<feGaussianBlur stdDeviation="1"/>
<feComposite in2="hardAlpha" operator="arithmetic" k2="-1" k3="1"/>
<feColorMatrix type="matrix" values="0 0 0 0 0.796078 0 0 0 0 0.835294 0 0 0 0 0.882353 0 0 0 1 0"/>
<feBlend mode="normal" in2="shape" result="effect1_innerShadow_100_3211"/>
<feColorMatrix in="SourceAlpha" type="matrix" values="0 0 0 0 0 0 0 0 0 0 0 0 0 0 0 0 0 0 127 0" result="hardAlpha"/>
<feOffset dy="-2"/>
<feGaussianBlur stdDeviation="1"/>
<feComposite in2="hardAlpha" operator="arithmetic" k2="-1" k3="1"/>
<feColorMatrix type="matrix" values="0 0 0 0 0.796078 0 0 0 0 0.835294 0 0 0 0 0.882353 0 0 0 0.6 0"/>
<feBlend mode="normal" in2="effect1_innerShadow_100_3211" result="effect2_innerShadow_100_3211"/>
</filter>
<filter id="filter3_f_100_3211" x="9.5" y="29" width="14" height="14" filterUnits="userSpaceOnUse" color-interpolation-filters="sRGB">
<feFlood flood-opacity="0" result="BackgroundImageFix"/>
<feBlend mode="normal" in="SourceGraphic" in2="BackgroundImageFix" result="shape"/>
<feGaussianBlur stdDeviation="1" result="effect1_foregroundBlur_100_3211"/>
</filter>
<filter id="filter4_i_100_3211" x="15.5" y="21" width="16" height="18" filterUnits="userSpaceOnUse" color-interpolation-filters="sRGB">
<feFlood flood-opacity="0" result="BackgroundImageFix"/>
<feBlend mode="normal" in="SourceGraphic" in2="BackgroundImageFix" result="shape"/>
<feColorMatrix in="SourceAlpha" type="matrix" values="0 0 0 0 0 0 0 0 0 0 0 0 0 0 0 0 0 0 127 0" result="hardAlpha"/>
<feOffset dy="2"/>
<feGaussianBlur stdDeviation="1"/>
<feComposite in2="hardAlpha" operator="arithmetic" k2="-1" k3="1"/>
<feColorMatrix type="matrix" values="0 0 0 0 0.796078 0 0 0 0 0.835294 0 0 0 0 0.882353 0 0 0 1 0"/>
<feBlend mode="normal" in2="shape" result="effect1_innerShadow_100_3211"/>
</filter>
<filter id="filter5_f_100_3211" x="15.5" y="21" width="16" height="14" filterUnits="userSpaceOnUse" color-interpolation-filters="sRGB">
<feFlood flood-opacity="0" result="BackgroundImageFix"/>
<feBlend mode="normal" in="SourceGraphic" in2="BackgroundImageFix" result="shape"/>
<feGaussianBlur stdDeviation="1" result="effect1_foregroundBlur_100_3211"/>
</filter>
<filter id="filter6_f_100_3211" x="40.5" y="26" width="14" height="14" filterUnits="userSpaceOnUse" color-interpolation-filters="sRGB">
<feFlood flood-opacity="0" result="BackgroundImageFix"/>
<feBlend mode="normal" in="SourceGraphic" in2="BackgroundImageFix" result="shape"/>
<feGaussianBlur stdDeviation="1" result="effect1_foregroundBlur_100_3211"/>
</filter>
<filter id="filter7_i_100_3211" x="24.5" y="13" width="25" height="27" filterUnits="userSpaceOnUse" color-interpolation-filters="sRGB">
<feFlood flood-opacity="0" result="BackgroundImageFix"/>
<feBlend mode="normal" in="SourceGraphic" in2="BackgroundImageFix" result="shape"/>
<feColorMatrix in="SourceAlpha" type="matrix" values="0 0 0 0 0 0 0 0 0 0 0 0 0 0 0 0 0 0 127 0" result="hardAlpha"/>
<feOffset dy="2"/>
<feGaussianBlur stdDeviation="1"/>
<feComposite in2="hardAlpha" operator="arithmetic" k2="-1" k3="1"/>
<feColorMatrix type="matrix" values="0 0 0 0 0.796078 0 0 0 0 0.835294 0 0 0 0 0.882353 0 0 0 1 0"/>
<feBlend mode="normal" in2="shape" result="effect1_innerShadow_100_3211"/>
</filter>
<filter id="filter8_f_100_3211" x="27.5" y="13" width="18" height="14" filterUnits="userSpaceOnUse" color-interpolation-filters="sRGB">
<feFlood flood-opacity="0" result="BackgroundImageFix"/>
<feBlend mode="normal" in="SourceGraphic" in2="BackgroundImageFix" result="shape"/>
<feGaussianBlur stdDeviation="1" result="effect1_foregroundBlur_100_3211"/>
</filter>
<filter id="filter9_i_100_3211" x="23.5" y="27" width="18" height="15" filterUnits="userSpaceOnUse" color-interpolation-filters="sRGB">
<feFlood flood-opacity="0" result="BackgroundImageFix"/>
<feBlend mode="normal" in="SourceGraphic" in2="BackgroundImageFix" result="shape"/>
<feColorMatrix in="SourceAlpha" type="matrix" values="0 0 0 0 0 0 0 0 0 0 0 0 0 0 0 0 0 0 127 0" result="hardAlpha"/>
<feOffset dy="2"/>
<feGaussianBlur stdDeviation="1"/>
<feComposite in2="hardAlpha" operator="arithmetic" k2="-1" k3="1"/>
<feColorMatrix type="matrix" values="0 0 0 0 0.796078 0 0 0 0 0.835294 0 0 0 0 0.882353 0 0 0 0.6 0"/>
<feBlend mode="normal" in2="shape" result="effect1_innerShadow_100_3211"/>
</filter>
<filter id="filter10_f_100_3211" x="23.5" y="27" width="18" height="13" filterUnits="userSpaceOnUse" color-interpolation-filters="sRGB">
<feFlood flood-opacity="0" result="BackgroundImageFix"/>
<feBlend mode="normal" in="SourceGraphic" in2="BackgroundImageFix" result="shape"/>
<feGaussianBlur stdDeviation="1" result="effect1_foregroundBlur_100_3211"/>
</filter>
<filter id="filter11_dii_100_3211" x="20.5" y="44" width="14.0625" height="15" filterUnits="userSpaceOnUse" color-interpolation-filters="sRGB">
<feFlood flood-opacity="0" result="BackgroundImageFix"/>
<feColorMatrix in="SourceAlpha" type="matrix" values="0 0 0 0 0 0 0 0 0 0 0 0 0 0 0 0 0 0 127 0" result="hardAlpha"/>
<feOffset dy="1"/>
<feGaussianBlur stdDeviation="1.5"/>
<feComposite in2="hardAlpha" operator="out"/>
<feColorMatrix type="matrix" values="0 0 0 0 0.278431 0 0 0 0 0.333333 0 0 0 0 0.411765 0 0 0 0.3 0"/>
<feBlend mode="normal" in2="BackgroundImageFix" result="effect1_dropShadow_100_3211"/>
<feBlend mode="normal" in="SourceGraphic" in2="effect1_dropShadow_100_3211" result="shape"/>
<feColorMatrix in="SourceAlpha" type="matrix" values="0 0 0 0 0 0 0 0 0 0 0 0 0 0 0 0 0 0 127 0" result="hardAlpha"/>
<feOffset dy="0.5"/>
<feGaussianBlur stdDeviation="0.25"/>
<feComposite in2="hardAlpha" operator="arithmetic" k2="-1" k3="1"/>
<feColorMatrix type="matrix" values="0 0 0 0 0.580392 0 0 0 0 0.639216 0 0 0 0 0.721569 0 0 0 1 0"/>
<feBlend mode="normal" in2="shape" result="effect2_innerShadow_100_3211"/>
<feColorMatrix in="SourceAlpha" type="matrix" values="0 0 0 0 0 0 0 0 0 0 0 0 0 0 0 0 0 0 127 0" result="hardAlpha"/>
<feOffset dy="-0.5"/>
<feGaussianBlur stdDeviation="0.25"/>
<feComposite in2="hardAlpha" operator="arithmetic" k2="-1" k3="1"/>
<feColorMatrix type="matrix" values="0 0 0 0 0.580392 0 0 0 0 0.639216 0 0 0 0 0.721569 0 0 0 1 0"/>
<feBlend mode="normal" in2="effect2_innerShadow_100_3211" result="effect3_innerShadow_100_3211"/>
</filter>
<filter id="filter12_dii_100_3211" x="30.5" y="44" width="14.0625" height="15" filterUnits="userSpaceOnUse" color-interpolation-filters="sRGB">
<feFlood flood-opacity="0" result="BackgroundImageFix"/>
<feColorMatrix in="SourceAlpha" type="matrix" values="0 0 0 0 0 0 0 0 0 0 0 0 0 0 0 0 0 0 127 0" result="hardAlpha"/>
<feOffset dy="1"/>
<feGaussianBlur stdDeviation="1.5"/>
<feComposite in2="hardAlpha" operator="out"/>
<feColorMatrix type="matrix" values="0 0 0 0 0.278431 0 0 0 0 0.333333 0 0 0 0 0.411765 0 0 0 0.3 0"/>
<feBlend mode="normal" in2="BackgroundImageFix" result="effect1_dropShadow_100_3211"/>
<feBlend mode="normal" in="SourceGraphic" in2="effect1_dropShadow_100_3211" result="shape"/>
<feColorMatrix in="SourceAlpha" type="matrix" values="0 0 0 0 0 0 0 0 0 0 0 0 0 0 0 0 0 0 127 0" result="hardAlpha"/>
<feOffset dy="0.5"/>
<feGaussianBlur stdDeviation="0.25"/>
<feComposite in2="hardAlpha" operator="arithmetic" k2="-1" k3="1"/>
<feColorMatrix type="matrix" values="0 0 0 0 0.580392 0 0 0 0 0.639216 0 0 0 0 0.721569 0 0 0 1 0"/>
<feBlend mode="normal" in2="shape" result="effect2_innerShadow_100_3211"/>
<feColorMatrix in="SourceAlpha" type="matrix" values="0 0 0 0 0 0 0 0 0 0 0 0 0 0 0 0 0 0 127 0" result="hardAlpha"/>
<feOffset dy="-0.5"/>
<feGaussianBlur stdDeviation="0.25"/>
<feComposite in2="hardAlpha" operator="arithmetic" k2="-1" k3="1"/>
<feColorMatrix type="matrix" values="0 0 0 0 0.580392 0 0 0 0 0.639216 0 0 0 0 0.721569 0 0 0 1 0"/>
<feBlend mode="normal" in2="effect2_innerShadow_100_3211" result="effect3_innerShadow_100_3211"/>
</filter>
<linearGradient id="paint0_linear_100_3211" x1="31.5" y1="42" x2="31.5" y2="53" gradientUnits="userSpaceOnUse">
<stop stop-color="#BAE6FD"/>
<stop offset="1" stop-color="#BAE6FD" stop-opacity="0"/>
</linearGradient>
<linearGradient id="paint1_linear_100_3211" x1="16.5" y1="31" x2="16.5" y2="41" gradientUnits="userSpaceOnUse">
<stop stop-color="white"/>
<stop offset="1" stop-color="#F3F3F3" stop-opacity="0.2"/>
</linearGradient>
<linearGradient id="paint2_linear_100_3211" x1="23.5" y1="23" x2="23.5" y2="33" gradientUnits="userSpaceOnUse">
<stop stop-color="white"/>
<stop offset="1" stop-color="#F3F3F3" stop-opacity="0.2"/>
</linearGradient>
<linearGradient id="paint3_linear_100_3211" x1="47.5" y1="28" x2="47.5" y2="38" gradientUnits="userSpaceOnUse">
<stop stop-color="white"/>
<stop offset="1" stop-color="#F3F3F3" stop-opacity="0.2"/>
</linearGradient>
<linearGradient id="paint4_linear_100_3211" x1="36.5" y1="15" x2="36.5" y2="25" gradientUnits="userSpaceOnUse">
<stop stop-color="white"/>
<stop offset="1" stop-color="#F3F3F3" stop-opacity="0.2"/>
</linearGradient>
<linearGradient id="paint5_linear_100_3211" x1="32.5" y1="27" x2="32.5" y2="40" gradientUnits="userSpaceOnUse">
<stop stop-color="#F1F5F9"/>
<stop offset="0.650321" stop-color="#F1F5F9" stop-opacity="0"/>
</linearGradient>
<linearGradient id="paint6_linear_100_3211" x1="32.5" y1="29" x2="32.5" y2="38" gradientUnits="userSpaceOnUse">
<stop stop-color="white"/>
<stop offset="1" stop-color="#F3F3F3" stop-opacity="0.2"/>
</linearGradient>
<linearGradient id="paint7_linear_100_3211" x1="27.5342" y1="46.2998" x2="27.5342" y2="47.7998" gradientUnits="userSpaceOnUse">
<stop stop-color="#E2E8F0"/>
<stop offset="1" stop-color="#E2E8F0" stop-opacity="0"/>
</linearGradient>
<linearGradient id="paint8_linear_100_3211" x1="24.5342" y1="48" x2="24.5342" y2="49.5" gradientUnits="userSpaceOnUse">
<stop stop-color="#E2E8F0"/>
<stop offset="1" stop-color="#E2E8F0" stop-opacity="0"/>
</linearGradient>
<linearGradient id="paint9_linear_100_3211" x1="24.5342" y1="51.5" x2="24.5342" y2="53" gradientUnits="userSpaceOnUse">
<stop stop-color="#E2E8F0"/>
<stop offset="1" stop-color="#E2E8F0" stop-opacity="0"/>
</linearGradient>
<linearGradient id="paint10_linear_100_3211" x1="30.5342" y1="48" x2="30.5342" y2="49.5" gradientUnits="userSpaceOnUse">
<stop stop-color="#E2E8F0"/>
<stop offset="1" stop-color="#E2E8F0" stop-opacity="0"/>
</linearGradient>
<linearGradient id="paint11_linear_100_3211" x1="30.5342" y1="51.5" x2="30.5342" y2="53" gradientUnits="userSpaceOnUse">
<stop stop-color="#E2E8F0"/>
<stop offset="1" stop-color="#E2E8F0" stop-opacity="0"/>
</linearGradient>
<linearGradient id="paint12_linear_100_3211" x1="37.5342" y1="46.2998" x2="37.5342" y2="47.7998" gradientUnits="userSpaceOnUse">
<stop stop-color="#E2E8F0"/>
<stop offset="1" stop-color="#E2E8F0" stop-opacity="0"/>
</linearGradient>
<linearGradient id="paint13_linear_100_3211" x1="34.5342" y1="48" x2="34.5342" y2="49.5" gradientUnits="userSpaceOnUse">
<stop stop-color="#E2E8F0"/>
<stop offset="1" stop-color="#E2E8F0" stop-opacity="0"/>
</linearGradient>
<linearGradient id="paint14_linear_100_3211" x1="34.5342" y1="51.5" x2="34.5342" y2="53" gradientUnits="userSpaceOnUse">
<stop stop-color="#E2E8F0"/>
<stop offset="1" stop-color="#E2E8F0" stop-opacity="0"/>
</linearGradient>
<linearGradient id="paint15_linear_100_3211" x1="40.5342" y1="48" x2="40.5342" y2="49.5" gradientUnits="userSpaceOnUse">
<stop stop-color="#E2E8F0"/>
<stop offset="1" stop-color="#E2E8F0" stop-opacity="0"/>
</linearGradient>
<linearGradient id="paint16_linear_100_3211" x1="40.5342" y1="51.5" x2="40.5342" y2="53" gradientUnits="userSpaceOnUse">
<stop stop-color="#E2E8F0"/>
<stop offset="1" stop-color="#E2E8F0" stop-opacity="0"/>
</linearGradient>
</defs>
</svg>
