<svg width="1em" height="1em" viewBox="0 0 65 64" fill="none" xmlns="http://www.w3.org/2000/svg">
<g filter="url(#filter0_f_100_3583)">
<path d="M17.5645 47.7391C16.6355 43.913 14.4677 42.3188 13.5 42H49.5C47.9516 43.7536 46.0161 46.2087 46.0161 47.7391C46.0161 49.2696 46.4032 51.8841 47.1774 53H16.4032C17.1774 52.8406 18.4935 51.5652 17.5645 47.7391Z" fill="url(#paint0_linear_100_3583)"/>
</g>
<g filter="url(#filter1_d_100_3583)">
<path fill-rule="evenodd" clip-rule="evenodd" d="M49.5 25.5121C49.5 25.5081 49.5 25.504 49.5 25.5C49.5 18.5964 43.9036 13 37 13C31.6094 13 27.0158 16.4122 25.2613 21.1945C24.6946 21.0672 24.1051 21 23.5 21C19.0817 21 15.5 24.5817 15.5 29C15.5 29.0236 15.5001 29.0473 15.5003 29.0708C12.1079 29.5559 9.5 32.4734 9.5 36C9.5 39.866 12.634 43 16.5 43H46.5C51.4706 43 55.5 38.9706 55.5 34C55.5 30.0813 52.9956 26.7476 49.5 25.5121Z" fill="#64748B"/>
</g>
<g filter="url(#filter2_ii_100_3583)">
<path fill-rule="evenodd" clip-rule="evenodd" d="M55.5 34C55.5 38.9706 51.4706 43 46.5 43H16.5C12.634 43 9.5 39.866 9.5 36C9.5 32.134 12.634 29 16.5 29C19.2924 29 21.7029 30.6351 22.8264 33H37.5549C38.0524 28.5 41.8674 25 46.5 25C51.4706 25 55.5 29.0294 55.5 34Z" fill="#F1F5F9"/>
</g>
<g filter="url(#filter3_f_100_3583)">
<circle cx="16.5" cy="36" r="5" fill="url(#paint1_linear_100_3583)" style="mix-blend-mode:soft-light"/>
</g>
<g filter="url(#filter4_i_100_3583)">
<circle cx="23.5" cy="29" r="8" fill="#F1F5F9"/>
</g>
<g filter="url(#filter5_f_100_3583)">
<ellipse cx="23.5" cy="28" rx="6" ry="5" fill="url(#paint2_linear_100_3583)" style="mix-blend-mode:soft-light"/>
</g>
<g filter="url(#filter6_f_100_3583)">
<circle cx="47.5" cy="33" r="5" fill="url(#paint3_linear_100_3583)" style="mix-blend-mode:soft-light"/>
</g>
<g filter="url(#filter7_i_100_3583)">
<circle cx="37" cy="25.5" r="12.5" fill="#F1F5F9"/>
</g>
<g filter="url(#filter8_f_100_3583)">
<ellipse cx="36.5" cy="20" rx="7" ry="5" fill="url(#paint4_linear_100_3583)" style="mix-blend-mode:soft-light"/>
</g>
<g filter="url(#filter9_i_100_3583)">
<ellipse cx="32.5" cy="33.5" rx="9" ry="6.5" fill="url(#paint5_linear_100_3583)"/>
</g>
<g filter="url(#filter10_f_100_3583)">
<ellipse cx="32.5" cy="33.5" rx="7" ry="4.5" fill="url(#paint6_linear_100_3583)" style="mix-blend-mode:soft-light"/>
</g>
<path fill-rule="evenodd" clip-rule="evenodd" d="M49.5 25.5121C49.5 25.5081 49.5 25.504 49.5 25.5C49.5 18.5964 43.9036 13 37 13C31.6094 13 27.0158 16.4122 25.2613 21.1945C24.6946 21.0672 24.1051 21 23.5 21C19.0817 21 15.5 24.5817 15.5 29C15.5 29.0236 15.5001 29.0473 15.5003 29.0708C12.1079 29.5559 9.5 32.4734 9.5 36C9.5 39.866 12.634 43 16.5 43H46.5C51.4706 43 55.5 38.9706 55.5 34C55.5 30.0813 52.9956 26.7476 49.5 25.5121Z" fill="#1E293B" style="mix-blend-mode:overlay"/>
<path fill-rule="evenodd" clip-rule="evenodd" d="M49.5 25.5121C49.5 25.5081 49.5 25.504 49.5 25.5C49.5 18.5964 43.9036 13 37 13C31.6094 13 27.0158 16.4122 25.2613 21.1945C24.6946 21.0672 24.1051 21 23.5 21C19.0817 21 15.5 24.5817 15.5 29C15.5 29.0236 15.5001 29.0473 15.5003 29.0708C12.1079 29.5559 9.5 32.4734 9.5 36C9.5 39.866 12.634 43 16.5 43H46.5C51.4706 43 55.5 38.9706 55.5 34C55.5 30.0813 52.9956 26.7476 49.5 25.5121Z" fill="#334155" fill-opacity="0.3" style="mix-blend-mode:multiply"/>
<g filter="url(#filter11_dii_100_3583)">
<path fill-rule="evenodd" clip-rule="evenodd" d="M30.5 42C30.5 42 32.1949 42.5 33 42.5C33.8051 42.5 35.5 42 35.5 42L34.1442 44.5273C33.7868 45.1935 34.2694 46.0001 35.0254 46.0001H35.3635C36.199 46.0001 36.6661 46.9639 36.1484 47.6197L29.9271 55.5L31.9883 49.3163C32.2042 48.6687 31.7222 48 31.0396 48L29.8874 48.0001C29.2049 48.0001 28.7229 47.3314 28.9387 46.6838L30.5 42Z" fill="#FCD34D"/>
</g>
<g filter="url(#filter12_f_100_3583)">
<path d="M32.5 40C25.4123 40 18.5 42.0335 18.5 43H46.5C46.5 42.0335 39.5877 40 32.5 40Z" fill="url(#paint7_radial_100_3583)"/>
</g>
<defs>
<filter id="filter0_f_100_3583" x="11.5" y="40" width="40" height="15" filterUnits="userSpaceOnUse" color-interpolation-filters="sRGB">
<feFlood flood-opacity="0" result="BackgroundImageFix"/>
<feBlend mode="normal" in="SourceGraphic" in2="BackgroundImageFix" result="shape"/>
<feGaussianBlur stdDeviation="1" result="effect1_foregroundBlur_100_3583"/>
</filter>
<filter id="filter1_d_100_3583" x="5.5" y="11" width="54" height="38" filterUnits="userSpaceOnUse" color-interpolation-filters="sRGB">
<feFlood flood-opacity="0" result="BackgroundImageFix"/>
<feColorMatrix in="SourceAlpha" type="matrix" values="0 0 0 0 0 0 0 0 0 0 0 0 0 0 0 0 0 0 127 0" result="hardAlpha"/>
<feOffset dy="2"/>
<feGaussianBlur stdDeviation="2"/>
<feComposite in2="hardAlpha" operator="out"/>
<feColorMatrix type="matrix" values="0 0 0 0 0.278431 0 0 0 0 0.333333 0 0 0 0 0.411765 0 0 0 0.4 0"/>
<feBlend mode="normal" in2="BackgroundImageFix" result="effect1_dropShadow_100_3583"/>
<feBlend mode="normal" in="SourceGraphic" in2="effect1_dropShadow_100_3583" result="shape"/>
</filter>
<filter id="filter2_ii_100_3583" x="9.5" y="23" width="46" height="22" filterUnits="userSpaceOnUse" color-interpolation-filters="sRGB">
<feFlood flood-opacity="0" result="BackgroundImageFix"/>
<feBlend mode="normal" in="SourceGraphic" in2="BackgroundImageFix" result="shape"/>
<feColorMatrix in="SourceAlpha" type="matrix" values="0 0 0 0 0 0 0 0 0 0 0 0 0 0 0 0 0 0 127 0" result="hardAlpha"/>
<feOffset dy="2"/>
<feGaussianBlur stdDeviation="1"/>
<feComposite in2="hardAlpha" operator="arithmetic" k2="-1" k3="1"/>
<feColorMatrix type="matrix" values="0 0 0 0 0.796078 0 0 0 0 0.835294 0 0 0 0 0.882353 0 0 0 1 0"/>
<feBlend mode="normal" in2="shape" result="effect1_innerShadow_100_3583"/>
<feColorMatrix in="SourceAlpha" type="matrix" values="0 0 0 0 0 0 0 0 0 0 0 0 0 0 0 0 0 0 127 0" result="hardAlpha"/>
<feOffset dy="-2"/>
<feGaussianBlur stdDeviation="1"/>
<feComposite in2="hardAlpha" operator="arithmetic" k2="-1" k3="1"/>
<feColorMatrix type="matrix" values="0 0 0 0 0.796078 0 0 0 0 0.835294 0 0 0 0 0.882353 0 0 0 0.6 0"/>
<feBlend mode="normal" in2="effect1_innerShadow_100_3583" result="effect2_innerShadow_100_3583"/>
</filter>
<filter id="filter3_f_100_3583" x="9.5" y="29" width="14" height="14" filterUnits="userSpaceOnUse" color-interpolation-filters="sRGB">
<feFlood flood-opacity="0" result="BackgroundImageFix"/>
<feBlend mode="normal" in="SourceGraphic" in2="BackgroundImageFix" result="shape"/>
<feGaussianBlur stdDeviation="1" result="effect1_foregroundBlur_100_3583"/>
</filter>
<filter id="filter4_i_100_3583" x="15.5" y="21" width="16" height="18" filterUnits="userSpaceOnUse" color-interpolation-filters="sRGB">
<feFlood flood-opacity="0" result="BackgroundImageFix"/>
<feBlend mode="normal" in="SourceGraphic" in2="BackgroundImageFix" result="shape"/>
<feColorMatrix in="SourceAlpha" type="matrix" values="0 0 0 0 0 0 0 0 0 0 0 0 0 0 0 0 0 0 127 0" result="hardAlpha"/>
<feOffset dy="2"/>
<feGaussianBlur stdDeviation="1"/>
<feComposite in2="hardAlpha" operator="arithmetic" k2="-1" k3="1"/>
<feColorMatrix type="matrix" values="0 0 0 0 0.796078 0 0 0 0 0.835294 0 0 0 0 0.882353 0 0 0 1 0"/>
<feBlend mode="normal" in2="shape" result="effect1_innerShadow_100_3583"/>
</filter>
<filter id="filter5_f_100_3583" x="15.5" y="21" width="16" height="14" filterUnits="userSpaceOnUse" color-interpolation-filters="sRGB">
<feFlood flood-opacity="0" result="BackgroundImageFix"/>
<feBlend mode="normal" in="SourceGraphic" in2="BackgroundImageFix" result="shape"/>
<feGaussianBlur stdDeviation="1" result="effect1_foregroundBlur_100_3583"/>
</filter>
<filter id="filter6_f_100_3583" x="40.5" y="26" width="14" height="14" filterUnits="userSpaceOnUse" color-interpolation-filters="sRGB">
<feFlood flood-opacity="0" result="BackgroundImageFix"/>
<feBlend mode="normal" in="SourceGraphic" in2="BackgroundImageFix" result="shape"/>
<feGaussianBlur stdDeviation="1" result="effect1_foregroundBlur_100_3583"/>
</filter>
<filter id="filter7_i_100_3583" x="24.5" y="13" width="25" height="27" filterUnits="userSpaceOnUse" color-interpolation-filters="sRGB">
<feFlood flood-opacity="0" result="BackgroundImageFix"/>
<feBlend mode="normal" in="SourceGraphic" in2="BackgroundImageFix" result="shape"/>
<feColorMatrix in="SourceAlpha" type="matrix" values="0 0 0 0 0 0 0 0 0 0 0 0 0 0 0 0 0 0 127 0" result="hardAlpha"/>
<feOffset dy="2"/>
<feGaussianBlur stdDeviation="1"/>
<feComposite in2="hardAlpha" operator="arithmetic" k2="-1" k3="1"/>
<feColorMatrix type="matrix" values="0 0 0 0 0.796078 0 0 0 0 0.835294 0 0 0 0 0.882353 0 0 0 1 0"/>
<feBlend mode="normal" in2="shape" result="effect1_innerShadow_100_3583"/>
</filter>
<filter id="filter8_f_100_3583" x="27.5" y="13" width="18" height="14" filterUnits="userSpaceOnUse" color-interpolation-filters="sRGB">
<feFlood flood-opacity="0" result="BackgroundImageFix"/>
<feBlend mode="normal" in="SourceGraphic" in2="BackgroundImageFix" result="shape"/>
<feGaussianBlur stdDeviation="1" result="effect1_foregroundBlur_100_3583"/>
</filter>
<filter id="filter9_i_100_3583" x="23.5" y="27" width="18" height="15" filterUnits="userSpaceOnUse" color-interpolation-filters="sRGB">
<feFlood flood-opacity="0" result="BackgroundImageFix"/>
<feBlend mode="normal" in="SourceGraphic" in2="BackgroundImageFix" result="shape"/>
<feColorMatrix in="SourceAlpha" type="matrix" values="0 0 0 0 0 0 0 0 0 0 0 0 0 0 0 0 0 0 127 0" result="hardAlpha"/>
<feOffset dy="2"/>
<feGaussianBlur stdDeviation="1"/>
<feComposite in2="hardAlpha" operator="arithmetic" k2="-1" k3="1"/>
<feColorMatrix type="matrix" values="0 0 0 0 0.796078 0 0 0 0 0.835294 0 0 0 0 0.882353 0 0 0 0.6 0"/>
<feBlend mode="normal" in2="shape" result="effect1_innerShadow_100_3583"/>
</filter>
<filter id="filter10_f_100_3583" x="23.5" y="27" width="18" height="13" filterUnits="userSpaceOnUse" color-interpolation-filters="sRGB">
<feFlood flood-opacity="0" result="BackgroundImageFix"/>
<feBlend mode="normal" in="SourceGraphic" in2="BackgroundImageFix" result="shape"/>
<feGaussianBlur stdDeviation="1" result="effect1_foregroundBlur_100_3583"/>
</filter>
<filter id="filter11_dii_100_3583" x="26.8867" y="40" width="11.4785" height="17.5" filterUnits="userSpaceOnUse" color-interpolation-filters="sRGB">
<feFlood flood-opacity="0" result="BackgroundImageFix"/>
<feColorMatrix in="SourceAlpha" type="matrix" values="0 0 0 0 0 0 0 0 0 0 0 0 0 0 0 0 0 0 127 0" result="hardAlpha"/>
<feOffset/>
<feGaussianBlur stdDeviation="1"/>
<feComposite in2="hardAlpha" operator="out"/>
<feColorMatrix type="matrix" values="0 0 0 0 0.988235 0 0 0 0 0.827451 0 0 0 0 0.301961 0 0 0 1 0"/>
<feBlend mode="normal" in2="BackgroundImageFix" result="effect1_dropShadow_100_3583"/>
<feBlend mode="normal" in="SourceGraphic" in2="effect1_dropShadow_100_3583" result="shape"/>
<feColorMatrix in="SourceAlpha" type="matrix" values="0 0 0 0 0 0 0 0 0 0 0 0 0 0 0 0 0 0 127 0" result="hardAlpha"/>
<feOffset dy="4"/>
<feGaussianBlur stdDeviation="1"/>
<feComposite in2="hardAlpha" operator="arithmetic" k2="-1" k3="1"/>
<feColorMatrix type="matrix" values="0 0 0 0 1 0 0 0 0 0.9575 0 0 0 0 0.7875 0 0 0 1 0"/>
<feBlend mode="normal" in2="shape" result="effect2_innerShadow_100_3583"/>
<feColorMatrix in="SourceAlpha" type="matrix" values="0 0 0 0 0 0 0 0 0 0 0 0 0 0 0 0 0 0 127 0" result="hardAlpha"/>
<feOffset/>
<feGaussianBlur stdDeviation="0.5"/>
<feComposite in2="hardAlpha" operator="arithmetic" k2="-1" k3="1"/>
<feColorMatrix type="matrix" values="0 0 0 0 0.960784 0 0 0 0 0.619608 0 0 0 0 0.0431373 0 0 0 1 0"/>
<feBlend mode="normal" in2="effect2_innerShadow_100_3583" result="effect3_innerShadow_100_3583"/>
</filter>
<filter id="filter12_f_100_3583" x="16.5" y="38" width="32" height="7" filterUnits="userSpaceOnUse" color-interpolation-filters="sRGB">
<feFlood flood-opacity="0" result="BackgroundImageFix"/>
<feBlend mode="normal" in="SourceGraphic" in2="BackgroundImageFix" result="shape"/>
<feGaussianBlur stdDeviation="1" result="effect1_foregroundBlur_100_3583"/>
</filter>
<linearGradient id="paint0_linear_100_3583" x1="31.5" y1="42" x2="31.5" y2="53" gradientUnits="userSpaceOnUse">
<stop stop-color="#94A3B8"/>
<stop offset="1" stop-color="#94A3B8" stop-opacity="0"/>
</linearGradient>
<linearGradient id="paint1_linear_100_3583" x1="16.5" y1="31" x2="16.5" y2="41" gradientUnits="userSpaceOnUse">
<stop stop-color="white"/>
<stop offset="1" stop-color="#F3F3F3" stop-opacity="0.2"/>
</linearGradient>
<linearGradient id="paint2_linear_100_3583" x1="23.5" y1="23" x2="23.5" y2="33" gradientUnits="userSpaceOnUse">
<stop stop-color="white"/>
<stop offset="1" stop-color="#F3F3F3" stop-opacity="0.2"/>
</linearGradient>
<linearGradient id="paint3_linear_100_3583" x1="47.5" y1="28" x2="47.5" y2="38" gradientUnits="userSpaceOnUse">
<stop stop-color="white"/>
<stop offset="1" stop-color="#F3F3F3" stop-opacity="0.2"/>
</linearGradient>
<linearGradient id="paint4_linear_100_3583" x1="36.5" y1="15" x2="36.5" y2="25" gradientUnits="userSpaceOnUse">
<stop stop-color="white"/>
<stop offset="1" stop-color="#F3F3F3" stop-opacity="0.2"/>
</linearGradient>
<linearGradient id="paint5_linear_100_3583" x1="32.5" y1="27" x2="32.5" y2="40" gradientUnits="userSpaceOnUse">
<stop stop-color="#F1F5F9"/>
<stop offset="0.650321" stop-color="#F1F5F9" stop-opacity="0"/>
</linearGradient>
<linearGradient id="paint6_linear_100_3583" x1="32.5" y1="29" x2="32.5" y2="38" gradientUnits="userSpaceOnUse">
<stop stop-color="white"/>
<stop offset="1" stop-color="#F3F3F3" stop-opacity="0.2"/>
</linearGradient>
<radialGradient id="paint7_radial_100_3583" cx="0" cy="0" r="1" gradientUnits="userSpaceOnUse" gradientTransform="translate(32.5 43.5) rotate(-90) scale(6 13.44)">
<stop offset="0.28125" stop-color="#FEF08A"/>
<stop offset="1" stop-color="#FEF08A" stop-opacity="0"/>
</radialGradient>
</defs>
</svg>
